<svg id="katman_1" data-name="katman 1" xmlns="http://www.w3.org/2000/svg" viewBox="0 0 1039 205.26"><defs><style>.cls-1{fill:#e83b3b;}</style></defs><title>Ant Media</title><path class="cls-1" d="M51.69,76.93c-.3-.29-32.68-8.61-38-31.78.89-17.23,51.69-31.78,111.69-31.78,60.3,0,110.8,14.55,112,31.78-5.65,22.87-37.73,31.49-38,31.78a6.51,6.51,0,0,0-5,6.54v115A6.58,6.58,0,0,0,200.8,205c16.34-.3,30-4.16,38.62-12.77a37.45,37.45,0,0,0,11.28-25.25V45.75C250.7,14.26,185.65,0,125.35,0S0,14.26,0,45.75V166.94a39.56,39.56,0,0,0,11.58,25.84c8.32,8.32,20.5,12.48,36,12.48a7.29,7.29,0,0,0,2.37-.3,6.59,6.59,0,0,0,6.54-6.53v-115A6.73,6.73,0,0,0,51.69,76.93ZM43.07,88.22V191.59c-9.5-.59-16.93-3.26-22-8.31a25.31,25.31,0,0,1-7.72-16.34V70.1C23.47,80.2,36.24,85.85,43.07,88.22Zm194.27,78.72c0,2.37-1.19,22.28-29.71,24.65V88.22c6.83-2.37,19.61-8,29.71-18.12Z"/><path class="cls-1" d="M163.67,116.44l-52.58-30c-5.64-3.27-11.28-3.56-15.74-.89-4.75,2.67-7.13,7.72-7.13,14v60.3c0,6.24,2.38,11.29,7.13,14a12,12,0,0,0,6.54,1.78,19.05,19.05,0,0,0,9.2-2.67l52.58-30c5.35-3.27,8.61-8,8.61-13.07C172.28,124.46,169,119.71,163.67,116.44Zm-6.83,14.85-52.58,30c-1.19.89-2.08.89-2.08,1.18a4.29,4.29,0,0,1-.59-2.67V99.51c0-2.08,0-2.38.3-2.38a3.74,3.74,0,0,1,2.37.9l52.58,30c1.48.89,1.78,1.48,2.08,1.48C158.92,129.81,158.32,130.4,156.84,131.29Z"/><path class="cls-1" d="M142.13,28.36l-20.41,17c-46.64-8-89.71,0-89.71,0S79.39,23.31,142.13,28.36Z"/><path class="cls-1" d="M168.72,31.92,143.44,50.65a112.53,112.53,0,0,0-11.42-3l21.72-18.17C158.61,30.23,163.67,31,168.72,31.92Z"/><path class="cls-1" d="M193.25,38.47l-28.84,20a89.1,89.1,0,0,0-11.61-4.87l26.41-19.29h.19C183.89,35.48,188.57,36.79,193.25,38.47Z"/><path class="cls-1" d="M216.85,47.46,181.46,67.69a80.27,80.27,0,0,0-8.62-5.06l30-21C207.49,43.34,212.17,45.4,216.85,47.46Z"/><path class="cls-1" d="M332.08,131.08h44.78l.19.79a173.87,173.87,0,0,1,3,17.34c.66,4.38,4.61,9.53,13.52,9.53h7.69C396.75,124.39,380.54,78.68,371.2,62a18.75,18.75,0,0,0-16.65-9.43h-8.39c-16.2,18.54-36.27,81.4-36.27,96.82,0,6.5,2.76,9.4,8.93,9.4h7.52c1.64-9.38,3.5-18.41,5.55-26.87Zm4.56-16.44c3.51-14.5,10.28-32.07,16.86-43.73l.89-1.59.89,1.59c5.53,9.82,13.09,28,16.86,43.73l.3,1.26h-36.1Z"/><path class="cls-1" d="M480.44,158.74h4.66v-48.6c0-25.28-17.9-36.6-35.64-36.6-25.82,0-37.39,17.82-37.39,35.49v36.83c0,7.58,5.69,12.88,13.83,12.88h5.3V110.45c0-12.24,6.49-20.15,16.52-20.15C456.05,90.3,466,94.06,466,112v33.83C466,153.44,471.93,158.74,480.44,158.74Z"/><path class="cls-1" d="M552.12,140.23c-3.42,1.81-8.37,2.7-15.09,2.7-9.73,0-14.46-5.35-14.46-16.35V92.2H540.5c8.46,0,11.62-5.58,11.62-9.1V75.44H522.57V56.15h-3.88c-2.76,0-6.28,2.11-9.17,5.5-4.51,5.3-5.93,8.23-5.93,16.24v51.22c0,20,10.69,30.59,30.91,30.59,11.36,0,17.62-4.7,17.62-13.21Z"/><path class="cls-1" d="M703.66,52.52H701.5c-4.42,3.85-11.09,14.82-16.31,31.06l-13,40.06a82.54,82.54,0,0,0-2.46,9.29l-1,5.24-1-5.24c-1-5-2.91-11.52-6.11-20.39l-15-42.37c-4-11.21-14.49-17.65-28.76-17.65H614.1c-3.79,21.22-8.52,68.56-8.52,92.87,0,8.23,4.82,13.35,12.56,13.35h6.57c.06-19.23,1.85-62.08,4.74-77.86l.63-3.42,1.33,3.21c1.66,3.94,4.17,10.38,6,15.85l15.49,45.68c3.6,10.67,9.43,16.54,16.42,16.54h5.3c2.86-4.21,6-11.1,8.42-18.57l15.18-46.48c1.18-3.7,2.63-7.08,3.9-10.07.42-1,.83-1.93,1.18-2.8l1.38-3.39.58,3.62c1.74,10.75,4.12,50.27,4.12,64.34,0,8.61,4.57,13.35,12.88,13.35h7.19c-.09-23-3.27-68.63-5.21-84.68C722.64,60,715.51,52.52,703.66,52.52Z"/><path class="cls-1" d="M782.75,160.64c20,0,29.8-6,29.8-18.27v-5.05c-7.4,6.18-18.06,7.5-25.86,7.5-13.25,0-23.25-7.39-24.87-18.41l-.19-1.18h15.11c28.4,0,39-5.34,39-19.68,0-20.79-17.06-32-33.12-32-24.35,0-40.71,18.2-40.71,45.29C741.88,145,762.67,160.64,782.75,160.64Zm-20.94-52.31c.53-10.9,8.65-19.13,18.88-19.13,10.9,0,17.14,5,17.14,13.83,0,7.17-5.75,9.24-25.67,9.24H761.58Z"/><path class="cls-1" d="M865.49,160.64c26.49,0,39.93-13.54,39.93-40.23V60.34c0-6.09-2.35-13.35-13.53-13.35h-5.45V90.77l-2-4.39c-3.17-7.08-12.25-12.84-20.25-12.84-23.4,0-37.38,16.87-37.38,45.13C826.85,141.81,844.19,160.64,865.49,160.64Zm-1.1-71.28c8.12,0,21.73,3.9,21.73,30.1,0,16.83-6.08,25.36-18.1,25.36-13.16,0-22.36-12.44-22.36-30.26C845.66,99.71,853.36,89.36,864.39,89.36Z"/><path class="cls-1" d="M963.48,144.19h-2.93c-10.19,0-14-3.31-14-12.24V92.12c0-9.81-4.77-14.79-14.15-14.79h-5V134c0,16.69,8.45,25.53,24.43,25.53,8.47,0,11.62-3.2,11.62-11.79Z"/><path class="cls-1" d="M936.85,44.62a11.39,11.39,0,0,0,0,22.77,11.62,11.62,0,0,0,11.46-11.47A11.4,11.4,0,0,0,936.85,44.62Z"/><path class="cls-1" d="M1039,111.08c0-30.77-19-37.23-35-37.23-20.7,0-30,10-30,19.85v5c4.42-4.56,13.44-9,26.79-9,11.63,0,19.36,2.83,19.36,16.68v2.12h-8.45c-27,0-41.33,8.89-41.33,25.7,0,15.3,13.61,26,33.11,26h4.27c18.37,0,31.22-12.13,31.22-29.49Zm-18.66,19.76c0,9.39-4.91,14.14-14.62,14.14S990,140.65,990,133.37c0-8.36,6.29-11.77,21.73-11.77h8.61Z"/></svg>