<svg width="1462" height="258" viewBox="0 0 1462 258" fill="none" xmlns="http://www.w3.org/2000/svg">
<g clip-path="url(#clip0_3_2)">
<path d="M299.384 131.21C299.384 186.211 254.798 230.799 199.795 230.799C174.248 230.799 150.949 221.177 133.319 205.365C161.561 192.65 181.222 164.262 181.222 131.282C181.222 98.2589 161.512 69.8419 133.211 57.1509C150.856 41.2809 174.196 31.6219 199.795 31.6219C254.798 31.6219 299.384 76.209 299.384 131.21Z" fill="white"/>
<path d="M159.987 51.718C98.825 5.49703 10.561 42.816 1.11403 118.895C-3.27597 154.253 11.556 189.262 40.009 210.704C101.205 256.884 189.443 219.5 198.838 143.414C203.197 108.101 188.387 73.148 159.987 51.717V51.718ZM148.91 66.393C198.809 104.046 189.233 181.593 131.674 205.979C104.964 217.297 74.242 213.504 51.085 196.028C1.18903 158.374 10.763 80.827 68.321 56.442C95.032 45.126 125.754 48.918 148.91 66.393Z" fill="white"/>
<path d="M413.978 58.125C427.645 58.125 439.294 61.662 448.927 68.74C458.559 75.819 465.182 85.201 468.798 96.886V59.838H485.85V194.696H468.798V157.65C465.182 169.346 458.559 178.732 448.927 185.81C439.294 192.889 427.645 196.428 413.978 196.428C401.794 196.428 390.885 193.628 381.252 188.031C371.62 182.435 364.129 174.407 358.777 163.947C353.426 153.488 350.748 141.261 350.748 127.267C350.748 113.111 353.426 100.804 358.777 90.344C364.129 79.895 371.579 71.914 381.13 66.396C390.68 60.88 401.629 58.125 413.978 58.125ZM418.422 73.429C403.274 73.429 391.13 78.244 381.987 87.878C372.856 97.511 368.29 110.641 368.29 127.267C368.29 143.896 372.856 157.027 381.987 166.66C391.13 176.291 403.274 181.106 418.422 181.106C427.971 181.106 436.574 178.886 444.224 174.441C451.883 170 457.894 163.701 462.257 155.55C466.618 147.399 468.798 137.973 468.798 127.267C468.798 116.563 466.618 107.142 462.257 98.999C457.894 90.851 451.883 84.546 444.224 80.096C436.574 75.651 427.971 73.429 418.422 73.429ZM595.501 58.125C607.85 58.125 618.759 60.88 628.226 66.396C637.695 71.914 645.106 79.895 650.458 90.344C655.809 100.804 658.485 113.111 658.485 127.267C658.485 141.261 655.809 153.488 650.458 163.947C645.106 174.407 637.651 182.435 628.105 188.031C618.555 193.628 607.686 196.428 595.501 196.428C581.669 196.428 569.98 192.889 560.43 185.81C550.88 178.732 544.296 169.346 540.679 157.65V258.418H523.382V59.838H540.679V96.886C544.296 85.201 550.88 75.819 560.43 68.74C569.98 61.662 581.669 58.125 595.501 58.125ZM590.811 73.429C581.261 73.429 572.656 75.651 564.995 80.096C557.345 84.546 551.379 90.851 547.1 98.999C542.821 107.142 540.679 116.563 540.679 127.267C540.679 137.973 542.821 147.399 547.1 155.55C551.379 163.701 557.345 170 564.995 174.441C572.656 178.886 581.261 181.106 590.811 181.106C606.122 181.106 618.308 176.291 627.368 166.66C636.419 157.027 640.943 143.896 640.943 127.267C640.943 110.641 636.419 97.511 627.368 87.878C618.308 78.244 606.122 73.429 590.811 73.429ZM761.713 58.125C774.064 58.125 784.973 60.88 794.44 66.396C803.909 71.914 811.321 79.895 816.673 90.344C822.023 100.804 824.7 113.111 824.7 127.267C824.7 141.261 822.023 153.488 816.673 163.947C811.321 174.407 803.868 182.435 794.318 188.031C784.769 193.628 773.901 196.428 761.713 196.428C747.883 196.428 736.195 192.889 726.646 185.81C717.094 178.732 710.512 169.346 706.896 157.65V258.418H689.598V59.838H706.896V96.886C710.512 85.201 717.094 75.819 726.646 68.74C736.195 61.662 747.883 58.125 761.713 58.125ZM757.027 73.429C747.478 73.429 738.87 75.651 731.21 80.096C723.561 84.546 717.596 90.851 713.315 98.999C709.036 107.142 706.896 116.563 706.896 127.267C706.896 137.973 709.036 147.399 713.315 155.55C717.596 163.701 723.561 170 731.21 174.441C738.87 178.886 747.478 181.106 757.027 181.106C772.338 181.106 784.523 176.291 793.582 166.66C802.633 157.027 807.158 143.896 807.158 127.267C807.158 110.641 802.633 97.511 793.582 87.878C784.523 78.244 772.338 73.429 757.027 73.429ZM1016.1 57.879H1048.71L1011.91 194.696H973.373L943.988 95.17L913.85 194.696H875.333L838.776 57.879H873.602L895.833 163.58L926.199 57.879H963L993.628 163.58L1016.1 57.879ZM1100.82 84.047C1105.92 75.325 1112.67 68.452 1121.06 63.425C1129.47 58.41 1138.85 55.904 1149.22 55.904V93.193H1139.1C1113.58 93.193 1100.82 105.047 1100.82 128.752V194.696H1066V57.879H1100.82V84.047ZM1164.54 18.594C1164.54 12.998 1166.52 8.43203 1170.47 4.89703C1174.42 1.35503 1179.61 -0.417969 1186.02 -0.417969C1192.45 -0.417969 1197.63 1.35503 1201.58 4.89703C1205.54 8.43203 1207.52 12.998 1207.52 18.594C1207.52 24.029 1205.54 28.518 1201.58 32.063C1197.63 35.606 1192.45 37.379 1186.02 37.379C1179.61 37.379 1174.42 35.606 1170.47 32.063C1166.52 28.518 1164.54 24.029 1164.54 18.594ZM1168.49 57.879H1203.32V194.696H1168.49V57.879ZM1294.45 164.806H1308.03V194.696H1289.75C1274.44 194.696 1262.71 190.995 1254.56 183.589C1246.41 176.173 1242.33 163.826 1242.33 146.542V87.264H1223.32V57.879H1242.33V24.034H1277.15V57.879H1307.78V87.264H1277.15V147.032C1277.15 153.62 1278.47 158.233 1281.11 160.867C1283.74 163.493 1288.19 164.806 1294.45 164.806ZM1461.65 121.094C1461.65 124.555 1461.24 128.509 1460.42 132.951H1360.14C1360.63 145.136 1363.93 154.111 1370.03 159.872C1376.11 165.633 1383.69 168.514 1392.75 168.514C1400.82 168.514 1407.52 166.538 1412.86 162.584C1418.21 158.641 1421.63 153.295 1423.11 146.542H1459.91C1458.11 156.092 1454.24 164.651 1448.32 172.222C1442.38 179.801 1434.77 185.73 1425.47 190.009C1416.17 194.288 1405.84 196.428 1394.48 196.428C1381.14 196.428 1369.28 193.589 1358.9 187.91C1348.53 182.23 1340.47 174.12 1334.71 163.58C1328.94 153.04 1326.06 140.607 1326.06 126.287C1326.06 111.958 1328.94 99.486 1334.71 88.874C1340.47 78.25 1348.53 70.138 1358.9 64.544C1369.28 58.947 1381.14 56.148 1394.48 56.148C1407.97 56.148 1419.78 58.947 1429.92 64.544C1440.04 70.138 1447.86 77.837 1453.37 87.633C1458.89 97.427 1461.65 108.581 1461.65 121.094ZM1426.58 117.648C1427.08 106.442 1424.16 97.957 1417.81 92.199C1411.47 86.436 1403.69 83.557 1394.48 83.557C1385.09 83.557 1377.18 86.436 1370.76 92.199C1364.33 97.957 1360.8 106.442 1360.14 117.648H1426.58Z" fill="white"/>
<path d="M102.666 96.7551C102.548 97.0481 101.023 103.028 99.386 110.123C97.683 117.216 94.986 128.414 93.464 135.037C90.531 147.173 88.772 155.146 88.772 156.2C88.772 156.492 90.591 156.729 92.816 156.729H96.864L98.679 148.637C99.736 144.242 102.083 134.157 103.957 126.243C105.834 118.329 108.118 108.714 108.999 104.843C109.878 100.974 110.758 97.46 110.934 97.048C111.11 96.521 110.112 96.347 107.063 96.347C104.776 96.347 102.782 96.5211 102.666 96.7551ZM71.183 122.138L65.79 128.002L67.375 129.878C68.252 130.932 70.659 133.571 72.709 135.742L76.462 139.725H87.133L82.089 134.274C79.332 131.346 77.046 128.529 77.046 128.179C77.046 127.768 79.157 125.132 81.739 122.316C84.317 119.446 86.428 116.98 86.428 116.688C86.428 116.452 84.201 116.277 81.505 116.277H76.638L71.183 122.138ZM112.221 116.629C112.221 116.806 113.219 117.917 114.449 119.149C119.025 123.722 122.248 127.593 122.071 128.352C121.956 128.766 119.726 131.519 117.03 134.391L112.165 139.725H117.616L123.068 139.668L128.049 134.215C130.808 131.169 133.035 128.469 133.035 128.119C133.035 127.827 130.69 125.071 127.757 121.965L122.485 116.277H117.381C114.508 116.277 112.221 116.452 112.221 116.629Z" fill="white"/>
</g>
<defs>
<clipPath id="clip0_3_2">
<rect width="1462" height="258" fill="white"/>
</clipPath>
</defs>
</svg>
