<svg viewBox="0 0 106 66" fill="none" xmlns="http://www.w3.org/2000/svg">
<path d="M42.8521 55.6471L19.0112 50.4576C16.8531 49.9438 15.2089 48.0427 15.1061 45.7305V20.0398C15.2089 17.7276 16.8531 15.8265 19.0112 15.3127L42.8521 10.1231L45.4212 0.000976562H17.6752C7.91273 0.000976562 0.0513815 7.86234 0 17.6248V48.0427C0 57.8565 7.91274 65.7693 17.6238 65.7693H45.3698L42.8521 55.6471ZM63.1478 55.6471L86.9889 50.4576C89.1469 49.9438 90.7911 48.0427 90.8938 45.7305V20.0398C90.7911 17.7276 89.1469 15.8265 86.9889 15.3127L63.1478 10.1231L60.5788 0.000976562H88.3248C98.0872 0.000976562 105.949 7.86234 106 17.6248V48.0427C105.949 57.7538 98.0872 65.6665 88.3248 65.6665H60.5788L63.1478 55.6471Z" fill="#FF6A00"/>
<path d="M42.8521 31.6519H63.1478V34.1695H42.8521V31.6519Z" fill="#FF6A00"/>
</svg>
