<svg viewBox="0 0 110 66" fill="none" xmlns="http://www.w3.org/2000/svg">
<path d="M31.01 23.9699C31.01 25.328 31.1561 26.4293 31.4119 27.2368C31.7042 28.0444 32.0696 28.9254 32.5812 29.8797C32.7639 30.1734 32.837 30.4671 32.837 30.724C32.837 31.0911 32.6177 31.4582 32.1427 31.8252L29.8407 33.3669C29.5118 33.5872 29.183 33.6973 28.8907 33.6973C28.5253 33.6973 28.1599 33.5138 27.7945 33.1834C27.2829 32.6328 26.8444 32.0455 26.479 31.4582C26.1136 30.8341 25.7482 30.1367 25.3463 29.2924C22.4962 32.6695 18.9153 34.358 14.6036 34.358C11.5343 34.358 9.08609 33.4771 7.29564 31.7151C5.50519 29.9532 4.5917 27.6039 4.5917 24.6673C4.5917 21.5472 5.68789 19.0144 7.91682 17.1056C10.1457 15.1968 13.1055 14.2424 16.8691 14.2424C18.1114 14.2424 19.3903 14.3526 20.7423 14.5361C22.0943 14.7196 23.4828 15.0133 24.9444 15.3437V12.664C24.9444 9.87426 24.3597 7.92878 23.227 6.79085C22.0577 5.65292 20.0846 5.10231 17.271 5.10231C15.9921 5.10231 14.6767 5.24914 13.3247 5.57951C11.9727 5.90988 10.6573 6.31366 9.37841 6.82756C8.79377 7.08451 8.3553 7.23134 8.09952 7.30475C7.84374 7.37817 7.66104 7.41487 7.51488 7.41487C7.00332 7.41487 6.74755 7.0478 6.74755 6.27695V4.47829C6.74755 3.89097 6.82063 3.45049 7.00332 3.19354C7.18602 2.93658 7.51488 2.67963 8.02644 2.42268C9.30533 1.76195 10.84 1.21134 12.6305 0.770853C14.4209 0.293658 16.321 0.0734146 18.3307 0.0734146C22.6789 0.0734146 25.8579 1.06451 27.9041 3.04671C29.9138 5.0289 30.9369 8.0389 30.9369 12.0767V23.9699H31.01ZM16.1748 29.5494C17.3806 29.5494 18.623 29.3291 19.9384 28.8886C21.2538 28.4482 22.4231 27.6406 23.4097 26.5394C23.9943 25.8419 24.4328 25.0711 24.652 24.1901C24.8713 23.3091 25.0174 22.2446 25.0174 20.9966V19.4549C23.9578 19.1979 22.8251 18.9777 21.6558 18.8308C20.4865 18.684 19.3538 18.6106 18.221 18.6106C15.7729 18.6106 13.9824 19.0878 12.7766 20.0789C11.5708 21.07 10.9862 22.4649 10.9862 24.3002C10.9862 26.0255 11.4246 27.3102 12.3381 28.1912C13.2151 29.1089 14.494 29.5494 16.1748 29.5494ZM45.5163 33.5138C44.8586 33.5138 44.4201 33.4036 44.1278 33.1467C43.8354 32.9265 43.5797 32.4125 43.3604 31.7151L34.7736 3.34036C34.5543 2.60622 34.4447 2.12902 34.4447 1.87207C34.4447 1.28476 34.737 0.95439 35.3217 0.95439H38.9026C39.5968 0.95439 40.0718 1.06451 40.3276 1.32146C40.6199 1.54171 40.8392 2.05561 41.0584 2.75305L47.1971 27.0533L52.8973 2.75305C53.08 2.0189 53.2992 1.54171 53.5916 1.32146C53.8839 1.10122 54.3954 0.95439 55.0532 0.95439H57.9763C58.6706 0.95439 59.1456 1.06451 59.4379 1.32146C59.7303 1.54171 59.986 2.05561 60.1322 2.75305L65.9055 27.3469L72.2269 2.75305C72.4461 2.0189 72.7019 1.54171 72.9577 1.32146C73.25 1.10122 73.725 0.95439 74.3827 0.95439H77.7809C78.3655 0.95439 78.6944 1.24805 78.6944 1.87207C78.6944 2.05561 78.6579 2.23915 78.6213 2.45939C78.5848 2.67963 78.5117 2.97329 78.3655 3.37707L69.5595 31.7518C69.3402 32.486 69.0844 32.9632 68.7921 33.1834C68.4998 33.4036 68.0248 33.5505 67.4036 33.5505H64.2612C63.5669 33.5505 63.0919 33.4404 62.7996 33.1834C62.5073 32.9265 62.2515 32.4493 62.1053 31.7151L56.4417 8.0389L50.8145 31.6784C50.6318 32.4125 50.4126 32.8897 50.1203 33.1467C49.828 33.4036 49.3164 33.5138 48.6587 33.5138H45.5163ZM92.4699 34.5049C90.5698 34.5049 88.6698 34.2846 86.8428 33.8441C85.0158 33.4036 83.5907 32.9265 82.6407 32.3758C82.0561 32.0455 81.6541 31.6784 81.508 31.348C81.3618 31.0177 81.2887 30.6506 81.2887 30.3202V28.4482C81.2887 27.6773 81.5811 27.3102 82.1292 27.3102C82.3484 27.3102 82.5676 27.3469 82.7869 27.4204C83.0061 27.4938 83.335 27.6406 83.7004 27.7874C84.9427 28.338 86.2947 28.7785 87.7197 29.0722C89.1813 29.3658 90.6064 29.5127 92.068 29.5127C94.37 29.5127 96.1604 29.1089 97.4028 28.3013C98.6451 27.4938 99.3028 26.3191 99.3028 24.8141C99.3028 23.7863 98.974 22.9421 98.3163 22.2446C97.6586 21.5472 96.4162 20.9232 94.6258 20.3358L89.3275 18.684C86.6601 17.8398 84.6869 16.5917 83.4811 14.9399C82.2753 13.3248 81.6541 11.5261 81.6541 9.61731C81.6541 8.07561 81.983 6.71744 82.6407 5.5428C83.2984 4.36817 84.1754 3.34036 85.2716 2.5328C86.3678 1.68854 87.6101 1.06451 89.0717 0.624024C90.5333 0.183536 92.068 0 93.6757 0C94.4796 0 95.32 0.0367073 96.1239 0.146829C96.9643 0.256951 97.7316 0.40378 98.499 0.55061C99.2298 0.734146 99.924 0.917683 100.582 1.13793C101.239 1.35817 101.751 1.57841 102.116 1.79866C102.628 2.09232 102.993 2.38597 103.213 2.71634C103.432 3.01 103.541 3.41378 103.541 3.92768V5.65292C103.541 6.42378 103.249 6.82756 102.701 6.82756C102.409 6.82756 101.934 6.68073 101.313 6.38707C99.2298 5.43268 96.8912 4.95549 94.2969 4.95549C92.2141 4.95549 90.5698 5.28585 89.4371 5.98329C88.3044 6.68073 87.7197 7.74524 87.7197 9.25024C87.7197 10.278 88.0851 11.159 88.8159 11.8565C89.5467 12.5539 90.8987 13.2513 92.8353 13.8754L98.024 15.5272C100.655 16.3715 102.555 17.5461 103.688 19.0511C104.82 20.5561 105.368 22.2813 105.368 24.1901C105.368 25.7685 105.04 27.2001 104.418 28.4482C103.761 29.6962 102.884 30.7974 101.751 31.6784C100.618 32.5961 99.2663 33.2568 97.6951 33.734C96.0508 34.2479 94.3334 34.5049 92.4699 34.5049Z" fill="#252F3E"/>
<path fill-rule="evenodd" clip-rule="evenodd" d="M99.376 52.3453C87.3544 61.2652 69.8883 66.0004 54.8705 66.0004C33.8236 66.0004 14.8594 58.1817 0.535789 45.1874C-0.596945 44.1596 0.426169 42.7647 1.77814 43.5722C17.271 52.6022 36.3813 58.0716 56.1494 58.0716C69.4864 58.0716 84.1389 55.2819 97.6221 49.5555C99.6318 48.6378 101.349 50.877 99.376 52.3453Z" fill="#FF9900"/>
<path fill-rule="evenodd" clip-rule="evenodd" d="M104.382 46.6187C102.847 44.6365 94.2238 45.6643 90.3141 46.1415C89.1448 46.2884 88.9621 45.2605 90.0218 44.4897C96.8913 39.6443 108.182 41.0392 109.498 42.6543C110.813 44.3062 109.132 55.6487 102.701 61.0814C101.715 61.9257 100.764 61.4852 101.203 60.384C102.665 56.7499 105.917 48.5642 104.382 46.6187Z" fill="#FF9900"/>
</svg>
