<svg viewBox="0 0 64 64" fill="none" xmlns="http://www.w3.org/2000/svg">
<path d="M16.0002 24.6154C20.7583 24.6154 24.6155 20.7581 24.6155 16C24.6155 11.2419 20.7583 7.38461 16.0002 7.38461C11.242 7.38461 7.38477 11.2419 7.38477 16C7.38477 20.7581 11.242 24.6154 16.0002 24.6154Z" fill="#72AC93"/>
<path d="M48.0002 24.6154C52.7583 24.6154 56.6155 20.7581 56.6155 16C56.6155 11.2419 52.7583 7.38461 48.0002 7.38461C43.242 7.38461 39.3848 11.2419 39.3848 16C39.3848 20.7581 43.242 24.6154 48.0002 24.6154Z" fill="#72AC93"/>
<path d="M60.5525 23.9168C62.7029 21.3902 64 18.1126 64 14.5447C64 6.52121 57.4805 0 49.4592 0C43.4176 0 38.2123 3.70445 36.0277 8.97946C33.2117 8.65511 30.8053 8.65511 27.9723 8.97946C25.7877 3.72153 20.5824 0 14.5408 0C6.51947 0 0 6.52121 0 14.5447C0 18.1126 1.29707 21.3902 3.44747 23.9168C1.19467 27.7578 0 32.0427 0 36.3617C0 51.6063 14.3531 64 32 64C49.6469 64 64 51.6063 64 36.3617C64 32.0256 62.8053 27.7578 60.5525 23.9168ZM49.4592 2.88504C55.8763 2.88504 61.0987 8.10883 61.0987 14.5276C61.0987 17.737 59.8016 20.6391 57.7024 22.7389C57.6341 22.8071 57.5659 22.8584 57.4976 22.9266C55.9616 24.3948 54.0331 25.4532 51.8656 25.9141C51.8485 25.9141 51.8144 25.9312 51.7973 25.9312C51.5072 25.9824 51.2171 26.0336 50.9269 26.0678C50.8245 26.0848 50.7221 26.1019 50.6368 26.119C50.3979 26.136 50.1419 26.1531 49.9029 26.1531C49.7493 26.1531 49.6128 26.1702 49.4592 26.1702C43.0421 26.1702 37.8197 20.9464 37.8197 14.5276C37.8197 13.9813 37.8709 13.4521 37.9392 12.9229C37.9563 12.8034 37.9733 12.6839 37.9904 12.5815C38.0757 12.0523 38.1952 11.5231 38.3659 11.0109C39.8677 6.31635 44.2709 2.88504 49.4592 2.88504ZM14.5408 2.88504C19.7291 2.88504 24.1323 6.29928 25.6341 11.0109C25.8048 11.5231 25.9072 12.0523 26.0096 12.5815C26.0267 12.701 26.0437 12.8205 26.0608 12.9229C26.1291 13.4521 26.1803 13.9984 26.1803 14.5276C26.1803 20.9464 20.9579 26.1702 14.5408 26.1702C14.3872 26.1702 14.2507 26.1531 14.0971 26.1531C13.8581 26.136 13.6021 26.136 13.3632 26.119C13.2608 26.1019 13.1584 26.0848 13.0731 26.0678C12.7829 26.0336 12.4928 25.9995 12.2027 25.9312C12.1856 25.9312 12.1515 25.9141 12.1344 25.9141C9.984 25.4532 8.0384 24.3948 6.5024 22.9266C6.43413 22.8584 6.36587 22.8071 6.2976 22.7389C4.1984 20.6391 2.90133 17.7199 2.90133 14.5276C2.90133 8.10883 8.12373 2.88504 14.5408 2.88504ZM5.59787 25.9995C5.87093 26.2043 6.144 26.4092 6.41707 26.597C7.20213 27.1262 8.02133 27.57 8.87467 27.9285C8.89173 27.9285 8.9088 27.9456 8.92587 27.9456C9.3184 28.1163 9.71093 28.2529 10.1205 28.3894C10.2059 28.4236 10.3083 28.4407 10.4107 28.4748C10.7349 28.5772 11.0763 28.6626 11.4176 28.7309C11.5541 28.765 11.6736 28.7821 11.8101 28.8162C12.1344 28.8845 12.4587 28.9186 12.7829 28.9699C12.9195 28.9869 13.056 29.004 13.1925 29.0211C13.6192 29.0552 14.0459 29.0894 14.4896 29.0894C14.5067 29.0894 14.5408 29.0894 14.5579 29.0894C22.5792 29.0894 29.0987 22.5682 29.0987 14.5447C29.0987 14.0667 29.0816 13.5887 29.0304 13.1278C29.0133 12.9058 28.9621 12.6839 28.928 12.462C28.8939 12.2401 28.8768 12.0181 28.8256 11.8133C31.0613 11.5914 32.9387 11.5914 35.1744 11.8133C35.1403 12.0352 35.1061 12.2571 35.072 12.462C35.0379 12.6839 35.0037 12.9058 34.9696 13.1278C34.9184 13.6058 34.9013 14.0667 34.9013 14.5447C34.9013 22.5682 41.4208 29.0894 49.4421 29.0894C49.4592 29.0894 49.4933 29.0894 49.5104 29.0894C49.9541 29.0894 50.3808 29.0552 50.8075 29.0211C50.944 29.004 51.0805 28.9869 51.2171 28.9699C51.5413 28.9357 51.8656 28.8845 52.1899 28.8162C52.3264 28.7991 52.4459 28.765 52.5824 28.7309C52.9237 28.6626 53.248 28.5772 53.5893 28.4748C53.6917 28.4407 53.7771 28.4236 53.8795 28.3894C54.2891 28.2529 54.6816 28.1163 55.0741 27.9627C55.0912 27.9627 55.1083 27.9456 55.1253 27.9456C55.9787 27.5871 56.7979 27.1432 57.5829 26.614C57.856 26.4262 58.1461 26.2214 58.4021 26.0165C60.16 29.2601 61.0816 32.7938 61.0816 36.3788C61.0816 41.9952 49.3909 48.0213 31.9829 48.0213C14.5749 48.0213 2.9184 41.9781 2.90133 36.3617C2.90133 32.7767 3.82293 29.2259 5.59787 25.9995ZM32 61.0979C18.944 61.0979 7.86773 53.7402 4.1984 43.6511C9.65973 48.0213 19.9339 50.9064 32 50.9064C44.0661 50.9064 54.3403 48.0213 59.8016 43.6511C56.1323 53.7402 45.056 61.0979 32 61.0979Z" fill="#72AC93"/>
<path d="M24.6158 41.8461C25.9753 41.8461 27.0774 40.7441 27.0774 39.3846C27.0774 38.0251 25.9753 36.9231 24.6158 36.9231C23.2564 36.9231 22.1543 38.0251 22.1543 39.3846C22.1543 40.7441 23.2564 41.8461 24.6158 41.8461Z" fill="#72AC93"/>
<path d="M39.3844 41.8461C40.7439 41.8461 41.8459 40.7441 41.8459 39.3846C41.8459 38.0251 40.7439 36.9231 39.3844 36.9231C38.0249 36.9231 36.9229 38.0251 36.9229 39.3846C36.9229 40.7441 38.0249 41.8461 39.3844 41.8461Z" fill="#72AC93"/>
</svg>
