<svg viewBox="0 0 99 78" fill="none" xmlns="http://www.w3.org/2000/svg">
<path d="M62.8185 21.4801H65.8395L74.4461 13.0541L74.8693 9.47887C58.8556 -4.35873 34.4095 -2.86771 20.2756 12.8103C16.3458 17.1655 13.4949 22.3455 11.9429 27.952C12.9015 27.5661 13.9638 27.5051 14.9639 27.7733L32.1728 24.9944C32.1728 24.9944 33.0484 23.5765 33.5007 23.6659C41.157 15.4348 54.0419 14.476 62.8808 21.4801H62.8185Z" fill="#EA4335"/>
<path d="M86.7043 27.952C84.7249 20.822 80.6665 14.411 75.0187 9.50732L62.943 21.3298C68.043 25.4088 70.9478 31.5557 70.8233 38.0032V40.1036C76.7616 40.1036 81.5711 44.8163 81.5711 50.626C81.5711 56.4398 76.7574 61.1484 70.8233 61.1484H49.3236L47.1782 63.2773V75.9002L49.3236 78.0006H70.8233C83.148 78.094 94.0825 70.2733 97.7426 58.7514C101.394 47.2255 96.9126 34.7124 86.7043 27.952Z" fill="#4285F4"/>
<path d="M27.7949 77.8826H49.2946V61.0345H27.7949C26.2636 61.0345 24.749 60.7135 23.3547 60.0879L20.3337 61.002L11.669 69.4281L10.9138 72.3857C15.7731 75.9772 21.7031 77.9069 27.7949 77.8826Z" fill="#34A853"/>
<path d="M27.7949 23.2228C15.852 23.2919 5.27431 30.7795 1.46487 41.8585C-2.34458 52.9375 1.45242 65.1663 10.9179 72.2923L23.3879 60.0838C17.9766 57.6909 15.5739 51.4587 18.0181 46.1609C20.4623 40.8631 26.828 38.5108 32.2392 40.9037C34.6212 41.96 36.53 43.8289 37.609 46.1609L50.0789 33.9524C44.7714 27.1636 36.5259 23.1944 27.7949 23.2228Z" fill="#FBBC05"/>
</svg>
