<svg viewBox="0 0 123 36" fill="none" xmlns="http://www.w3.org/2000/svg">
<path d="M0 0H123V35.1719H0V0Z" fill="black"/>
<path d="M117.477 25.2459C117.237 25.3135 117.034 25.3504 116.832 25.3504C116.112 25.3504 115.774 25.0429 115.774 24.1573V17.4723C115.774 13.9606 112.975 12.2509 109.667 12.2509C107.139 12.2509 105.78 12.5584 103.08 13.647L102.477 17.1894L105.989 17.5645L106.487 15.8302C107.207 15.4551 107.92 15.3874 108.843 15.3874C111.333 15.3874 111.37 17.2632 111.37 18.8314V19.3419C110.583 19.2373 109.698 19.2066 108.843 19.2066C105.331 19.2066 101.678 20.0922 101.678 23.8806C101.678 27.0847 104.199 28.284 106.42 28.284C108.91 28.284 110.479 26.7834 111.364 25.2151C111.567 27.0909 112.693 28.284 114.741 28.284C115.694 28.284 116.684 28.0134 117.502 27.5644L117.477 25.2459ZM108.031 25.1475C106.702 25.1475 106.223 24.3603 106.223 23.3701C106.223 21.6973 107.588 21.2545 109.156 21.2545C109.87 21.2545 110.657 21.3591 111.376 21.4575C111.272 24.022 109.599 25.1475 108.031 25.1475ZM102.121 4.47119L95.4665 27.9457H91.1307L97.785 4.47119H102.121ZM93.1848 4.47119L86.5305 27.9457H82.2009L88.8552 4.47119H93.1848ZM74.7102 12.5584H79.3165V18.0811H74.7102V12.5584ZM74.7102 22.4169H79.3165V27.9457H74.7102V22.4169ZM68.0067 22.2139L71.4876 22.5522L70.5344 27.9457H57.0904L56.6476 25.6272L65.11 15.904H60.3007L59.6181 18.2902L56.4447 17.9458L56.992 12.5523H70.5036L70.848 14.8708L62.3118 24.6001H67.2933L68.0067 22.2139ZM45.9589 12.2509C40.4301 12.2509 37.6995 15.9717 37.6995 20.4735C37.6995 25.3873 40.9774 28.284 45.7191 28.284C50.6329 28.284 54.1815 25.1782 54.1815 20.2644C54.1815 15.9655 51.4816 12.2509 45.9589 12.2509ZM45.8544 24.9076C43.4682 24.9076 42.2382 22.8597 42.2382 20.1967C42.2382 17.2939 43.6342 15.6273 45.8913 15.6273C47.97 15.6273 49.6428 17.0233 49.6428 20.1291C49.6428 23.0626 48.1422 24.9076 45.8544 24.9076ZM33.7389 24.6001H35.7868V27.9457H29.3355V19.2804C29.3355 16.6174 28.4499 15.5965 26.7094 15.5965C24.5938 15.5965 23.739 17.0971 23.739 19.2496V24.6001H25.7869V27.9457H19.3417V19.2804C19.3417 16.6174 18.4561 15.5965 16.7157 15.5965C14.6001 15.5965 13.7452 17.0971 13.7452 19.2496V24.6001H16.6788V27.9457H7.30005V24.6001H9.348V15.8979H7.30005V12.5523H13.7452V14.8708C14.6677 13.2349 16.2729 12.2448 18.4192 12.2448C20.6394 12.2448 22.6812 13.3026 23.4377 15.5535C24.2925 13.5055 26.0329 12.2448 28.456 12.2448C31.2174 12.2448 33.745 13.9176 33.745 17.5645V24.6001H33.7389Z" fill="white"/>
</svg>
