<svg xmlns="http://www.w3.org/2000/svg" viewBox="0 0 330.11 343.73"><defs><style>.cls-1{fill:#c9c9c9;}.cls-1,.cls-2,.cls-3,.cls-4{fill-rule:evenodd;}.cls-2{fill:#ed297a;}.cls-3,.cls-5{fill:#fff;}.cls-4{fill:#1c75bd;}</style></defs><g id="logo"><g id="Layer_1" data-name="Layer 1"><path class="cls-1" d="M250.64,41a60.2,60.2,0,0,1,51.58,84.28c-.52,1.17-1.07,2.33-1.66,3.47a60.22,60.22,0,0,1-2.78,105.2A60.22,60.22,0,0,1,251.49,292a54.28,54.28,0,0,1-87.48,40l-3.57-2.77V19.93l2.29-2.61A50.7,50.7,0,0,1,250.64,41"/><path class="cls-2" d="M169.67,59.35V324.76a45.06,45.06,0,0,0,72.4-40.54,51,51,0,0,0,46.49-50.78c0-1.46-.09-3-.24-4.72l-.06-.58a51,51,0,0,0-1.1-95.55,51,51,0,0,0-40.07-82.48c-1.55,0-3.13.08-4.75.23A41.46,41.46,0,0,0,169.67,23.4v36Z"/><path class="cls-3" d="M311.36,180.57a41.46,41.46,0,0,0-76.61-22l-8-5a51,51,0,0,1,50-23.49,41.19,41.19,0,0,0,11.78-29,41.45,41.45,0,0,0-41.45-41.45,42,42,0,0,0-4.47.23l-1.34.16A41.51,41.51,0,0,1,202.79,92.1l-.41-9.49a32,32,0,1,0-23.19-55.38V59.35h-9.52V23.4a41.46,41.46,0,0,1,72.67,26.94c1.62-.15,3.2-.23,4.75-.23a51,51,0,0,1,40.07,82.48,51,51,0,0,1,1.1,95.55l.06.58c.15,1.68.24,3.26.24,4.72a51,51,0,0,1-46.49,50.78,45.05,45.05,0,0,1-72.4,40.54v-32.3h9.52v27.31a35.58,35.58,0,0,0,53.63-30.64,34.39,34.39,0,0,0-.25-4.24l-.09-.73A51,51,0,0,1,199,266.73l7.18-6.21A41.46,41.46,0,0,0,279,233.44c0-1,0-1.87-.07-2.7A51,51,0,0,1,219.82,190l9.34-1.75a41.46,41.46,0,0,0,82.2-7.66"/><path class="cls-1" d="M79.47,41.29a60.19,60.19,0,0,0-51.58,84.27c.52,1.18,1.07,2.34,1.67,3.48a60.24,60.24,0,0,0,2.77,105.2,60.24,60.24,0,0,0,46.29,58.08,54.28,54.28,0,0,0,87.48,40l3.57-2.77V20.23l-2.29-2.61A50.7,50.7,0,0,0,79.47,41.29"/><path class="cls-4" d="M160.44,59.64V325.06A45.06,45.06,0,0,1,88,284.52a51,51,0,0,1-46.48-50.78c0-1.46.08-3,.23-4.72l.06-.58A51,51,0,0,1,43,132.88,51,51,0,0,1,83,50.41c1.55,0,3.14.08,4.75.23A41.45,41.45,0,0,1,160.44,23.7V59.64Z"/><path class="cls-3" d="M18.75,180.87a41.46,41.46,0,0,1,76.61-22l8-5a51,51,0,0,0-50.05-23.49,41.19,41.19,0,0,1-11.78-29A41.45,41.45,0,0,1,83,59.94a42.4,42.4,0,0,1,4.48.22l1.33.17A41.51,41.51,0,0,0,127.32,92.4l.41-9.49a32,32,0,1,1,23.19-55.38V59.64h9.52V23.7A41.46,41.46,0,0,0,87.77,50.64c-1.61-.15-3.2-.23-4.75-.23A50.95,50.95,0,0,0,43,132.88a51,51,0,0,0-1.11,95.56l-.06.58c-.15,1.68-.23,3.26-.23,4.72A51,51,0,0,0,88,284.52a45.05,45.05,0,0,0,72.4,40.54v-32.3h-9.52v27.31a35.58,35.58,0,0,1-53.63-30.64,36.33,36.33,0,0,1,.25-4.24l.09-.73A51,51,0,0,0,131.11,267l-7.18-6.22a41.45,41.45,0,0,1-72.85-27.07c0-1,0-1.87.07-2.7a51,51,0,0,0,59.14-40.76L101,188.53a41.46,41.46,0,0,1-82.21-7.66"/><rect class="cls-5" x="150.92" y="51.12" width="9.53" height="249.42"/><rect class="cls-5" x="169.67" y="42.87" width="9.53" height="257.67"/></g></g></svg>