<svg width="128" height="128" viewBox="0 0 128 128" fill="none" xmlns="http://www.w3.org/2000/svg">
<g clip-path="url(#clip0_202_2)">
<rect width="128" height="128" fill="black"/>
<path d="M62.1753 67.98C62.0633 67.1587 62.11 66.4307 62.3153 65.796C62.5206 65.1613 62.81 64.5827 63.1833 64.06C63.5753 63.5373 63.9766 63.0427 64.3873 62.576C64.798 62.1093 65.1433 61.652 65.4233 61.204C65.7033 60.756 65.8433 60.28 65.8433 59.776C65.8433 59.104 65.638 58.5627 65.2273 58.152C64.8353 57.7413 64.2846 57.536 63.5753 57.536C62.9966 57.536 62.474 57.6667 62.0073 57.928C61.5406 58.1893 61.102 58.544 60.6913 58.992L58.8993 57.34C59.5153 56.6307 60.2526 56.052 61.1113 55.604C61.97 55.1373 62.922 54.904 63.9673 54.904C65.4233 54.904 66.618 55.296 67.5513 56.08C68.5033 56.864 68.9793 58.0213 68.9793 59.552C68.9793 60.2613 68.83 60.896 68.5313 61.456C68.2513 62.016 67.8966 62.5387 67.4673 63.024C67.0566 63.5093 66.646 63.9947 66.2353 64.48C65.8246 64.9653 65.498 65.488 65.2553 66.048C65.0126 66.608 64.9286 67.252 65.0033 67.98H62.1753ZM63.6033 74.336C63.0246 74.336 62.53 74.1307 62.1193 73.72C61.7273 73.3093 61.5313 72.7867 61.5313 72.152C61.5313 71.5173 61.7273 70.9947 62.1193 70.584C62.53 70.1733 63.0246 69.968 63.6033 69.968C64.2006 69.968 64.6953 70.1733 65.0873 70.584C65.498 70.9947 65.7033 71.5173 65.7033 72.152C65.7033 72.7867 65.498 73.3093 65.0873 73.72C64.6953 74.1307 64.2006 74.336 63.6033 74.336Z" fill="white"/>
</g>
<defs>
<clipPath id="clip0_202_2">
<rect width="128" height="128" fill="white"/>
</clipPath>
</defs>
</svg>
