<svg viewBox="0 0 53 32" fill="none" xmlns="http://www.w3.org/2000/svg">
<path d="M48.4259 1.10308C48.1696 0.613837 47.5653 0.424957 47.076 0.681202L39.1034 4.85696C38.6142 5.11321 38.4253 5.71754 38.6815 6.20679C38.9378 6.69603 39.5421 6.88491 40.0314 6.62866L47.1181 2.91687L50.8299 10.0037C51.0862 10.4929 51.6905 10.6818 52.1798 10.4255C52.669 10.1693 52.8579 9.56496 52.6016 9.07572L48.4259 1.10308ZM2.53979 29.3295L3.50014 29.6083L4.05778 27.6876L3.09744 27.4088L2.53979 29.3295ZM6.65693 28.2837L5.67636 28.0875L5.28397 30.0486L6.26453 30.2448L6.65693 28.2837ZM10.0588 30.8186L11.0538 30.9191L11.2549 28.9293L10.26 28.8287L10.0588 30.8186ZM13.9178 29.0007L12.9178 29.0094L12.9353 31.0093L13.9353 31.0006L13.9178 29.0007ZM17.7974 30.7388L18.7892 30.6111L18.5339 28.6275L17.5421 28.7552L17.7974 30.7388ZM21.1067 28.0669L20.1388 28.3184L20.6418 30.2541L21.6096 30.0026L21.1067 28.0669ZM25.2943 28.7889L26.2222 28.4161L25.4766 26.5603L24.5487 26.9331L25.2943 28.7889ZM27.8303 25.369L26.9559 25.8541L27.9261 27.603L28.8006 27.1178L27.8303 25.369ZM32.0698 25.0429L32.8819 24.4594L31.715 22.8351L30.9028 23.4186L32.0698 25.0429ZM33.7466 21.1329L33.0009 21.7992L34.3334 23.2906L35.0791 22.6243L33.7466 21.1329ZM37.8256 19.9192L38.5044 19.1849L37.0357 17.8273L36.3569 18.5616L37.8256 19.9192ZM38.7318 15.757L38.1181 16.5465L39.6972 17.7739L40.3109 16.9844L38.7318 15.757ZM42.5453 13.8657L43.0965 13.0314L41.4279 11.9289L40.8766 12.7632L42.5453 13.8657ZM42.7968 9.61871L42.3057 10.4898L44.0478 11.4721L44.539 10.601L42.7968 9.61871ZM46.3092 7.19616L46.7402 6.29381L44.9355 5.43179L44.5045 6.33413L46.3092 7.19616ZM45.9738 2.95727L45.6098 3.88863L47.4725 4.6168L47.8366 3.68544L45.9738 2.95727ZM0.684019 28.7508C1.30944 28.9591 1.92801 29.1518 2.53979 29.3295L3.09744 27.4088C2.51101 27.2385 1.91721 27.0535 1.31596 26.8533L0.684019 28.7508ZM6.26453 30.2448C7.56235 30.5045 8.82694 30.6941 10.0588 30.8186L10.26 28.8287C9.094 28.7109 7.89324 28.531 6.65693 28.2837L6.26453 30.2448ZM13.9353 31.0006C15.2655 30.9889 16.5526 30.899 17.7974 30.7388L17.5421 28.7552C16.3767 28.9052 15.169 28.9897 13.9178 29.0007L13.9353 31.0006ZM21.6096 30.0026C22.8899 29.67 24.1177 29.2617 25.2943 28.7889L24.5487 26.9331C23.4492 27.3749 22.3024 27.7562 21.1067 28.0669L21.6096 30.0026ZM28.8006 27.1178C29.9477 26.4814 31.0369 25.785 32.0698 25.0429L30.9028 23.4186C29.9295 24.118 28.9058 24.7722 27.8303 25.369L28.8006 27.1178ZM35.0791 22.6243C36.0547 21.7526 36.9694 20.8454 37.8256 19.9192L36.3569 18.5616C35.5408 19.4445 34.6713 20.3067 33.7466 21.1329L35.0791 22.6243ZM40.3109 16.9844C41.1221 15.9408 41.8659 14.894 42.5453 13.8657L40.8766 12.7632C40.2231 13.7523 39.509 14.7571 38.7318 15.757L40.3109 16.9844ZM44.539 10.601C45.2236 9.38665 45.8118 8.23742 46.3092 7.19616L44.5045 6.33413C44.0247 7.33871 43.4571 8.44751 42.7968 9.61871L44.539 10.601ZM47.8366 3.68544C48.0572 3.12106 48.2202 2.67079 48.3287 2.35932C48.383 2.20357 48.4237 2.08249 48.4512 1.99914C48.4649 1.95747 48.4754 1.92523 48.4826 1.90281C48.4862 1.89159 48.489 1.88284 48.491 1.87658C48.4919 1.87345 48.4927 1.87095 48.4933 1.86908C48.4936 1.86814 48.4939 1.86736 48.4941 1.86674C48.4942 1.86643 48.4942 1.86616 48.4943 1.86593C48.4943 1.86582 48.4944 1.86571 48.4944 1.86562C48.4944 1.86557 48.4944 1.86551 48.4945 1.86548C48.4945 1.86542 48.4945 1.86536 47.54 1.56705C46.5856 1.26874 46.5856 1.26869 46.5856 1.26863C46.5856 1.26862 46.5856 1.26857 46.5856 1.26854C46.5856 1.26849 46.5856 1.26844 46.5857 1.26841C46.5857 1.26834 46.5857 1.2683 46.5857 1.26831C46.5857 1.26832 46.5856 1.2685 46.5855 1.26882C46.5853 1.26948 46.5849 1.27077 46.5843 1.27267C46.5831 1.27648 46.5811 1.28277 46.5783 1.2915C46.5727 1.30895 46.5639 1.33614 46.5518 1.37269C46.5277 1.44578 46.4906 1.55628 46.4402 1.70111C46.3392 1.9908 46.1848 2.41768 45.9738 2.95727L47.8366 3.68544Z" fill="#45515E"/>
</svg>
