<svg viewBox="0 0 204 202" fill="none" xmlns="http://www.w3.org/2000/svg">
<path d="M97.2623 13.1133L36.6121 68.9121C28.6952 76.194 24.1914 86.458 24.1914 97.2132C24.1914 106.396 20.9083 115.274 14.9333 122.243L12.7149 124.829C6.73859 131.8 3.45551 140.678 3.45551 149.86V154.864C3.45551 180.507 24.2434 201.295 49.8854 201.295C62.1994 201.295 74.0111 196.404 82.7163 187.695L190.299 80.1121C199.008 71.4069 203.898 59.5952 203.898 47.2812C203.898 21.6392 183.111 0.851318 157.468 0.851318H128.699C117.051 0.851318 105.833 5.22649 97.2623 13.1133Z" fill="#AD7F5C"/>
<path d="M157.468 0.851318H148.672C168.597 16.9766 171.676 46.1974 155.551 66.1203C154.527 67.3848 153.435 68.5946 152.285 69.7455L44.7028 177.328C37.9314 184.08 29.244 188.577 19.819 190.202C28.1971 197.366 38.862 201.302 49.8854 201.295C62.1994 201.295 74.0111 196.404 82.7163 187.696L190.299 80.1135C208.433 61.9805 208.433 32.5833 190.299 14.4503C181.591 5.74242 169.782 0.851318 157.468 0.851318Z" fill="#996E51"/>
<path d="M117.5 106.256C117.5 112.937 112.085 118.353 105.405 118.353C98.7253 118.353 93.3101 112.937 93.3101 106.256C93.3101 99.5764 98.7253 94.1611 105.405 94.1611C112.085 94.1611 117.5 99.5764 117.5 106.256Z" fill="#8C6348"/>
<path d="M148.604 94.1614C148.604 97.9783 145.51 101.074 141.691 101.074C137.875 101.074 134.78 97.9783 134.78 94.1614C134.78 90.3446 137.875 87.249 141.691 87.249C145.51 87.249 148.604 90.3446 148.604 94.1614Z" fill="#8C6348"/>
<path d="M118.932 20.157C121.582 22.9036 121.506 27.2801 118.762 29.9296C116.084 32.5189 111.836 32.5189 109.158 29.9296" fill="#8C6348"/>
<path d="M40.4577 128.302C43.1085 131.05 43.0332 135.425 40.2894 138.076C37.6098 140.664 33.3633 140.664 30.6851 138.076" fill="#8C6348"/>
<path d="M61.1936 169.774C63.8444 172.52 63.7691 176.895 61.0239 179.546C58.3457 182.134 54.0991 182.134 51.4196 179.546" fill="#8C6348"/>
<path d="M10.3679 42.1259V44.1336C10.3679 45.9934 11.5572 47.6452 13.3226 48.2323L19.7683 50.3822C20.4033 50.593 20.9808 50.9488 21.4571 51.4182C23.0158 52.9742 25.4901 53.1124 27.2117 51.7371L37.9669 43.1318C40.1785 41.3623 41.4676 38.6841 41.4704 35.8499C41.4704 30.6974 37.2923 26.5193 32.1398 26.5193H28.0588C25.5845 26.5193 23.2101 27.5005 21.4571 29.2522L11.6324 39.0714C10.8236 39.8788 10.3679 40.9791 10.3679 42.1259Z" fill="#AD7F5C"/>
<path d="M172.795 45.7786H179.706V52.691H172.795V45.7786Z" fill="#8C6348"/>
<path d="M131.324 35.4106H138.236V42.3231H131.324V35.4106Z" fill="#8C6348"/>
<path d="M69.1187 146H76.0297V152.912H69.1187V146Z" fill="#8C6348"/>
<path d="M62.2063 87.249H69.1187V94.1614H62.2063V87.249Z" fill="#8C6348"/>
<path d="M55.2939 11.2192H62.2063V18.1317H55.2939V11.2192Z" fill="#8C6348"/>
<path d="M110.589 190.927H117.501V197.839H110.589V190.927Z" fill="#8C6348"/>
<path d="M0 101.074H6.91241V107.985H0V101.074Z" fill="#8C6348"/>
<path d="M190.074 170.191H196.987V177.103H190.074V170.191Z" fill="#8C6348"/>
<path d="M88.4899 5H84.5061C82.363 5 80.3623 6.07155 79.173 7.85474L77.0751 10.9955C75.3822 13.5396 75.7175 16.9226 77.877 19.0835C79.7916 20.998 82.7161 21.4716 85.1343 20.2577L91.3556 17.1484C93.5261 16.0631 94.8973 13.8448 94.8973 11.4184C94.9042 7.87937 92.0399 5.00821 88.5009 5C88.4968 5 88.494 5 88.4899 5Z" fill="#AD7F5C"/>
<path d="M147 135.736V140.508C147 142.876 148.337 145.042 150.456 146.1C152.574 147.158 155.107 146.929 157.001 145.509L165.233 139.337C166.812 138.152 167.739 136.292 167.735 134.318V124.687C167.732 121.999 166.01 119.618 163.461 118.767L162.126 118.322C159.347 117.395 156.296 118.522 154.786 121.034L147.891 132.528C147.311 133.496 147 134.606 147 135.736Z" fill="#AD7F5C"/>
</svg>
