<svg viewBox="0 0 239 236" fill="none" xmlns="http://www.w3.org/2000/svg">
<path d="M156.386 151.394C155.27 176.649 155.111 189.316 152.402 203.178C151.207 209.392 150.53 210.666 150.53 211.144C153.382 213.256 155.148 216.525 155.35 220.067V224.05C155.35 228.45 151.783 232.017 147.383 232.017H123.483C121.283 232.017 119.5 230.234 119.5 228.034C119.5 230.234 117.717 232.017 115.517 232.017H91.6167C87.2168 232.017 83.65 228.45 83.65 224.05V220.067C83.8579 216.588 85.5746 213.372 88.3503 211.264C83.172 192.502 83.65 170.315 83.1322 150.518L119.779 133.031L156.386 151.394Z" fill="#F29C1F"/>
<path d="M156.386 151.394C156.386 151.394 155.35 174.378 155.35 175.812C138.5 186.089 99.185 185.412 83.65 175.812C83.65 172.665 83.65 183.54 83.0923 150.518L119.739 133.031L156.386 151.394Z" fill="#E57E25"/>
<path d="M177.099 60.9727C178.304 61.2228 179.427 61.7705 180.365 62.566C190.403 70.931 203.548 94.4327 183.074 123.312L175.107 121.28L169.809 114.27C183.074 95.4683 176.661 82.7615 172.438 77.4238L177.099 60.9727Z" fill="#35495E"/>
<path d="M190.244 139.525L175.665 173.503C173.972 177.556 170.02 180.206 165.627 180.234C159.742 180.114 154.964 175.44 154.713 169.559C138.142 180.195 99.6232 179.517 84.3272 169.559C84.1371 173.744 81.6342 177.475 77.8343 179.239C75.1645 180.465 72.109 180.547 69.3778 179.463C66.6466 178.38 64.4776 176.226 63.3748 173.503L48.7958 139.525C46.6243 134.51 48.291 128.66 52.7792 125.543L74.6875 110.446C78.1426 108.063 82.6685 107.908 86.279 110.048C88.7487 105.507 90.7403 102.081 91.4175 101.006H147.662C148.339 102.161 150.331 105.467 152.841 110.048C156.451 107.908 160.977 108.063 164.432 110.446L186.34 125.543C190.8 128.683 192.432 134.529 190.244 139.525V139.525Z" fill="#F29C1F"/>
<path d="M129.498 104.551H109.303C95.904 104.597 83.1009 99.0181 74.0128 89.1727C64.9247 79.3272 60.386 66.1194 61.5027 52.7672C61.5027 51.8511 61.7417 50.2976 64.1715 29.1461C66.0413 12.9912 79.7758 0.836218 96.0382 0.944072H142.802C158.974 0.958068 172.57 13.0822 174.43 29.1461L176.979 51.2137C178.56 64.7641 174.275 78.344 165.204 88.5336C156.133 98.7232 143.14 104.551 129.498 104.551V104.551Z" fill="#D25627"/>
<path d="M177.099 52.7672C175.023 77.5995 154.218 96.6706 129.299 96.5839H109.303C84.3839 96.6706 63.5791 77.5995 61.5027 52.7672C61.5027 51.8511 61.7417 50.2976 64.1715 29.1461C66.0413 12.9913 79.7758 0.836218 96.0382 0.944072H142.802C158.974 0.958068 172.57 13.0822 174.43 29.1461C176.9 50.5764 177.099 52.0104 177.099 52.7672Z" fill="#E57E25"/>
<path d="M129.498 88.6174H109.303C100.516 88.6325 92.1139 85.0194 86.0809 78.6319C80.0479 72.2445 76.9198 63.6495 77.436 54.8785C77.436 53.1657 77.436 53.9624 80.1447 30.9785C81.0949 22.9473 87.9111 16.9018 95.9983 16.9173H142.802C150.934 16.8634 157.801 22.9409 158.736 31.0183L161.285 53.086C162.333 62.1384 159.456 71.2063 153.38 77.9979C147.304 84.7896 138.611 88.655 129.498 88.6174V88.6174Z" fill="#2C3E50"/>
<path d="M160.09 43.7252C136.142 61.0042 105.149 65.1884 77.4758 54.8785C77.4758 53.1657 77.4758 53.9623 80.1845 30.9785C81.1329 22.9624 87.9263 16.922 95.9983 16.9173H142.802C150.934 16.8634 157.801 22.9409 158.736 31.0183L160.09 43.7252Z" fill="#35495E"/>
<path d="M164.91 145.579L154.713 169.479C152.745 173.205 148.48 175.099 144.396 174.059C144.834 171.988 144.396 173.143 157.62 142.193C158.405 140.368 157.725 138.244 156.027 137.214L150.849 134.146C149.463 133.52 148.555 132.16 148.508 130.64C148.461 129.12 149.283 127.706 150.627 126.995C151.971 126.285 153.602 126.401 154.832 127.295L160.01 130.402C165.274 133.472 167.385 140.01 164.91 145.579V145.579Z" fill="#E57E25"/>
<path d="M94.6838 174.179C90.3022 176.928 87.1952 174.179 84.2873 169.559L74.2493 146.176C71.8861 140.672 73.964 134.268 79.109 131.199L84.2475 128.132C85.4772 127.238 87.1087 127.121 88.4528 127.832C89.7968 128.543 90.6189 129.957 90.5718 131.477C90.5246 132.997 89.6164 134.357 88.2308 134.983L83.0525 138.05C81.3542 139.081 80.6745 141.205 81.4592 143.03C94.883 174.02 94.3652 172.626 94.6838 174.179V174.179Z" fill="#E57E25"/>
<path d="M135.433 116.501H103.567C101.367 116.501 99.5833 118.284 99.5833 120.484V148.368C99.5833 150.568 101.367 152.351 103.567 152.351H135.433C137.633 152.351 139.417 150.568 139.417 148.368V120.484C139.417 118.284 137.633 116.501 135.433 116.501Z" fill="#F0C419"/>
<path d="M181.64 159.561L178.493 166.89L170.048 164.301C168.039 163.561 166.974 161.364 167.638 159.328C168.303 157.291 170.458 156.145 172.518 156.733L181.64 159.561Z" fill="#E57E25"/>
<path d="M188.611 143.309L185.464 150.638L178.015 148.368C176.612 147.967 175.541 146.832 175.222 145.409C174.902 143.986 175.387 142.502 176.484 141.541C177.581 140.58 179.116 140.295 180.485 140.799L188.611 143.309Z" fill="#E57E25"/>
<path d="M68.9515 164.301L60.5068 167.09L57.36 159.76L66.4818 156.733C68.5415 156.145 70.6973 157.291 71.3618 159.328C72.0263 161.364 70.9615 163.561 68.9515 164.301Z" fill="#E57E25"/>
<path d="M60.9848 148.367L53.536 150.836L50.3892 143.507L58.3558 140.798C60.4155 140.211 62.5713 141.357 63.2358 143.393C63.9003 145.429 62.8355 147.627 60.8255 148.367H60.9848Z" fill="#E57E25"/>
<path d="M99.5833 36.8345C97.965 36.8439 96.5019 35.8733 95.8813 34.3787C95.2608 32.8841 95.6061 31.1626 96.7552 30.023C97.5031 29.2689 98.5212 28.8447 99.5833 28.8447C100.645 28.8447 101.664 29.2689 102.411 30.023C103.561 31.1626 103.906 32.8841 103.285 34.3787C102.665 35.8733 101.202 36.8439 99.5833 36.8345Z" fill="white"/>
<path d="M139.417 36.8339H115.517C113.317 36.8339 111.533 35.0505 111.533 32.8505C111.533 30.6506 113.317 28.8672 115.517 28.8672H139.417C141.617 28.8672 143.4 30.6506 143.4 32.8505C143.4 35.0505 141.617 36.8339 139.417 36.8339Z" fill="white"/>
<path d="M127.467 132.434H123.483C121.283 132.434 119.5 130.651 119.5 128.451C119.5 126.251 121.283 124.468 123.483 124.468H127.467C129.667 124.468 131.45 126.251 131.45 128.451C131.45 130.651 129.667 132.434 127.467 132.434Z" fill="#F29C1F"/>
<path d="M127.467 144.385H123.483C121.283 144.385 119.5 142.601 119.5 140.401C119.5 138.201 121.283 136.418 123.483 136.418H127.467C129.667 136.418 131.45 138.201 131.45 140.401C131.45 142.601 129.667 144.385 127.467 144.385Z" fill="#F29C1F"/>
<path d="M119.5 232.017C117.3 232.017 115.517 230.234 115.517 228.034V196.167C115.517 193.967 117.3 192.184 119.5 192.184C121.7 192.184 123.483 193.967 123.483 196.167V228.034C123.483 230.234 121.7 232.017 119.5 232.017Z" fill="#E57E25"/>
<path d="M99.5833 205.887C99.5833 208.087 97.7999 209.87 95.6 209.87C93.1735 209.796 90.7584 210.23 88.5097 211.145C87.7927 208.635 87.1553 206.006 86.6375 203.178C89.5266 202.229 92.5607 201.797 95.6 201.903C97.7999 201.903 99.5833 203.687 99.5833 205.887Z" fill="#E57E25"/>
<path d="M152.362 203.258C151.845 205.926 151.247 208.555 150.49 211.224C148.261 210.23 145.84 209.74 143.4 209.79C141.2 209.79 139.417 208.007 139.417 205.807C139.417 203.607 141.2 201.824 143.4 201.824C146.449 201.768 149.483 202.254 152.362 203.258Z" fill="#E57E25"/>
<path d="M15.9333 236H3.98332C1.78338 236 -1.52588e-05 234.216 -1.52588e-05 232.017C-1.52588e-05 229.817 1.78338 228.033 3.98332 228.033H15.9333C18.1333 228.033 19.9167 229.817 19.9167 232.017C19.9167 234.216 18.1333 236 15.9333 236Z" fill="#CBB292"/>
<path d="M235.017 236H31.8667C29.6667 236 27.8833 234.216 27.8833 232.017C27.8833 229.817 29.6667 228.033 31.8667 228.033H235.017C237.217 228.033 239 229.817 239 232.017C239 234.216 237.217 236 235.017 236Z" fill="#CBB292"/>
<path d="M23.9 28.8668C21.7 28.8668 19.9166 27.0834 19.9166 24.8835V8.95013C19.9166 6.7502 21.7 4.9668 23.9 4.9668C26.0999 4.9668 27.8833 6.7502 27.8833 8.95013V24.8835C27.8833 27.0834 26.0999 28.8668 23.9 28.8668Z" fill="#F0C419"/>
<path d="M31.8667 20.9003H15.9333C13.7334 20.9003 11.95 19.1169 11.95 16.9169C11.95 14.717 13.7334 12.9336 15.9333 12.9336H31.8667C34.0666 12.9336 35.85 14.717 35.85 16.9169C35.85 19.1169 34.0666 20.9003 31.8667 20.9003Z" fill="#F0C419"/>
<path d="M223.067 108.533C220.867 108.533 219.083 106.749 219.083 104.549V88.6161C219.083 86.4162 220.867 84.6328 223.067 84.6328C225.267 84.6328 227.05 86.4162 227.05 88.6161V104.549C227.05 106.749 225.267 108.533 223.067 108.533Z" fill="#F0C419"/>
<path d="M231.033 100.567H215.1C212.9 100.567 211.117 98.7839 211.117 96.5839C211.117 94.384 212.9 92.6006 215.1 92.6006H231.033C233.233 92.6006 235.017 94.384 235.017 96.5839C235.017 98.7839 233.233 100.567 231.033 100.567Z" fill="#F0C419"/>
<path d="M19.9166 160.317C17.7167 160.317 15.9333 158.534 15.9333 156.334V140.4C15.9333 138.2 17.7167 136.417 19.9166 136.417C22.1166 136.417 23.9 138.2 23.9 140.4V156.334C23.9 158.534 22.1166 160.317 19.9166 160.317Z" fill="#F0C419"/>
<path d="M27.8833 152.349H11.95C9.75004 152.349 7.96664 150.566 7.96664 148.366C7.96664 146.166 9.75004 144.383 11.95 144.383H27.8833C30.0832 144.383 31.8666 146.166 31.8666 148.366C31.8666 150.566 30.0832 152.349 27.8833 152.349Z" fill="#F0C419"/>
</svg>
