<svg viewBox="0 0 316 432" fill="none" xmlns="http://www.w3.org/2000/svg">
<path d="M206.47 337.747C204.04 345.603 199.092 362.873 200.249 373.954C201.467 381.651 204.545 388.934 209.215 395.172C213.449 401.231 208.925 409.155 200.762 410.007C197.475 410.42 194.165 409.443 191.629 407.31L163.461 393.298L160.557 339.14L206.47 337.747Z" fill="#35495E"/>
<path d="M163.999 292.122L144.033 212.49L100.944 220.34L84.1076 241.101C80.8028 245.173 79.8779 250.681 81.6715 255.608L116.02 349.891C118.73 357.369 126.829 361.407 134.432 359.071L145.088 355.758L163.999 292.122Z" fill="#35495E"/>
<path d="M124.173 261.773C196.524 255.419 120.216 262.186 189.692 256.083C193.634 255.179 197.007 252.646 198.974 249.113C200.941 245.58 201.318 241.378 200.01 237.552C199.364 235.007 198.351 232.569 197.004 230.314L123.314 243.009C121.175 244.039 119.41 245.709 118.262 247.787C116.742 250.947 117.024 255.568 124.173 261.773Z" fill="#3F5C6C"/>
<path d="M216.758 314.619L224.083 322.506C227.123 325.908 231.798 327.346 236.225 326.239C240.538 325.196 243.974 321.942 245.249 317.692C246.524 313.441 245.447 308.833 242.42 305.588C200.697 259.935 213.525 273.598 196.025 255.421L216.758 314.619Z" fill="#35495E"/>
<path d="M194.123 250.619C194.123 250.619 222.474 282.666 216.195 318.328C209.917 353.991 174.342 348.553 174.342 348.553L173.408 387.509C173.405 390.177 174.585 392.71 176.631 394.424C185.151 401.786 181.681 398.247 184.794 402.673C186.182 404.658 186.697 407.126 186.217 409.501C185.737 411.876 184.305 413.95 182.255 415.241C177.718 418.512 171.551 418.336 167.207 414.811L152.352 401.859C150.312 400.144 149.148 397.605 149.179 394.939L145.016 355.066C145.016 355.066 141.953 325.73 129.916 306.233C141.895 277.276 123.451 321.911 111.419 351.322C109.127 356.198 103.616 358.666 98.4526 357.129C93.2894 355.592 90.0252 350.511 90.773 345.176C93.9278 327.493 103.785 278.205 111.006 269.299C115.784 263.767 122.874 260.788 130.17 261.247L194.123 250.619Z" fill="#3F5C6C"/>
<path d="M171.97 277.937C166.082 281.545 159.528 283.93 152.698 284.95L154.212 299.445C154.506 304.385 158.197 308.456 163.086 309.232C167.974 310.007 172.743 307.279 174.553 302.672L171.97 277.937Z" fill="#35495E"/>
<path d="M93.414 196.121C96.8372 228.907 126.191 252.711 158.977 249.288C191.763 245.864 215.567 216.511 212.143 183.725C208.72 150.938 179.367 127.135 146.581 130.558C113.794 133.981 89.9909 163.335 93.414 196.121Z" fill="#2C3E50"/>
<path d="M162.891 238.876C183.367 236.746 201.3 224.213 210.339 205.717C218.549 175.983 202.75 144.892 173.893 133.993C145.036 123.095 112.628 135.98 99.1326 163.717C93.9158 182.729 98.423 203.09 111.176 218.124C123.929 233.157 143.283 240.924 162.891 238.876Z" fill="#35495E"/>
<path d="M190.792 235.964C203.035 225.881 210.762 211.34 212.266 195.551C213.77 179.762 208.928 164.023 198.809 151.81C182.737 144.495 164.056 145.806 149.163 155.293C125.73 170.342 119.68 187.127 118.45 192.107C118.307 192.574 118.206 193.053 118.149 193.538C118.149 193.538 118.285 242.734 190.792 235.964Z" fill="#F29C1F"/>
<path d="M118.45 192.107C132.965 202.926 151.606 206.573 169.128 202.021C186.651 197.469 201.16 185.21 208.574 168.694C206.289 162.558 202.989 156.851 198.809 151.81C182.737 144.496 164.056 145.806 149.163 155.293C125.482 170.368 119.68 187.127 118.45 192.107Z" fill="#F0C419"/>
<path d="M274.906 162.169C277.638 161.883 279.622 159.437 279.336 156.705L277.27 136.917C276.985 134.185 274.539 132.201 271.807 132.486C269.075 132.772 267.091 135.218 267.376 137.95L269.442 157.738C269.727 160.47 272.174 162.454 274.906 162.169Z" fill="#F0C419"/>
<path d="M263.979 153.307L283.767 151.241C286.499 150.956 288.483 148.51 288.197 145.778C287.912 143.045 285.466 141.062 282.734 141.347L262.946 143.413C260.213 143.698 258.23 146.145 258.515 148.877C258.8 151.609 261.246 153.593 263.979 153.307Z" fill="#F0C419"/>
<path d="M35.5989 217.16C38.3311 216.875 40.3147 214.429 40.0294 211.697L37.9634 191.908C37.6781 189.176 35.232 187.193 32.4998 187.478C29.7676 187.763 27.784 190.209 28.0692 192.942L30.1353 212.73C30.4206 215.462 32.8667 217.446 35.5989 217.16Z" fill="#F0C419"/>
<path d="M24.6717 208.299L44.4599 206.233C47.1921 205.948 49.1757 203.502 48.8905 200.769C48.6052 198.037 46.1591 196.054 43.4269 196.339L23.6387 198.405C20.9065 198.69 18.9228 201.136 19.2081 203.868C19.4934 206.601 21.9395 208.584 24.6717 208.299Z" fill="#F0C419"/>
<path d="M259.984 258.745C262.716 258.46 264.7 256.014 264.415 253.282L262.349 233.493C262.063 230.761 259.617 228.778 256.885 229.063C254.153 229.348 252.169 231.794 252.455 234.526L254.521 254.315C254.806 257.047 257.252 259.031 259.984 258.745Z" fill="#F0C419"/>
<path d="M249.057 249.884L268.845 247.818C271.578 247.533 273.561 245.087 273.276 242.355C272.991 239.623 270.545 237.639 267.812 237.924L248.024 239.99C245.292 240.276 243.308 242.722 243.594 245.454C243.879 248.186 246.325 250.17 249.057 249.884Z" fill="#F0C419"/>
<path d="M147.315 185.492C149.838 185.229 149.996 183.862 154.244 180.968C156.506 179.351 157.029 176.206 155.411 173.945C153.794 171.683 150.65 171.16 148.388 172.777C146.572 174.037 144.845 175.42 143.219 176.918C141.619 178.398 141.168 180.747 142.108 182.714C143.047 184.681 145.158 185.807 147.315 185.492Z" fill="#F9EAB0"/>
<path d="M191.322 175.896C193.7 175.654 195.57 173.754 195.774 171.372C195.978 168.99 194.458 166.801 192.156 166.158C184.96 164.431 177.515 163.989 170.165 164.853C167.433 165.138 165.449 167.584 165.735 170.316C166.02 173.049 168.466 175.032 171.198 174.747C177.926 174.11 184.711 174.498 191.322 175.896Z" fill="#F9EAB0"/>
<path d="M76.0373 105.718C76.0001 109.184 78.8844 112.03 82.0185 112.562C85.3661 113.248 89.236 111.572 90.6114 108.171C91.6528 105.666 90.8955 102.593 88.9376 100.83C85.8156 97.8357 80.404 98.0585 77.6152 101.44C76.6346 102.593 76.0406 104.107 76.0373 105.66" fill="white"/>
<path d="M76.0373 105.718C76.0001 109.184 78.8844 112.03 82.0185 112.562C85.3661 113.248 89.236 111.572 90.6114 108.171C91.6528 105.666 90.8955 102.593 88.9376 100.83C85.8156 97.8357 80.404 98.0585 77.6152 101.44C76.6346 102.593 76.0406 104.107 76.0373 105.66" stroke="black" stroke-width="2" stroke-linecap="round" stroke-linejoin="round"/>
<path d="M93.1801 120.401C93.1358 122.925 95.2442 125.177 97.7139 125.512C100.191 125.938 102.918 124.513 103.751 122.097C104.565 119.96 103.662 117.387 101.743 116.167C99.634 114.715 96.5339 114.955 94.7268 116.789C93.7656 117.715 93.1746 119.018 93.1802 120.359" fill="white"/>
<path d="M93.1801 120.401C93.1358 122.925 95.2442 125.177 97.7139 125.512C100.191 125.938 102.918 124.513 103.751 122.097C104.565 119.96 103.662 117.387 101.743 116.167C99.634 114.715 96.5339 114.955 94.7268 116.789C93.7656 117.715 93.1746 119.018 93.1802 120.359" stroke="black" stroke-width="2" stroke-linecap="round" stroke-linejoin="round"/>
<path d="M52.5522 28C59.6852 28 66.0179 31.1555 70.0453 36.0383C72.7012 33.4971 76.2359 31.949 80.1045 31.949C86.2521 31.949 91.5127 35.8457 93.8099 41.4306C102.843 41.9742 110 48.969 110 57.527C110 63.835 106.121 69.2854 100.462 71.94C100.521 72.5084 100.562 73.0798 100.562 73.6639C100.562 82.7943 93.1574 90.2016 84.0313 90.2016C81.0397 90.2016 78.2364 89.3874 75.8159 87.9966C72.1391 93.1269 65.9062 96.4959 58.8438 96.4959C49.992 96.4959 42.4582 91.1833 39.6082 83.7671C37.7371 84.3699 35.7434 84.6892 33.677 84.6892C22.812 84.6892 14 75.6905 14 64.6035V64.4431C14.0808 54.3848 21.4025 46.1088 30.8916 44.7386C32.7806 35.2084 41.7628 28.001 52.5518 28.001L52.5522 28Z" fill="white" stroke="black" stroke-width="2" stroke-linecap="round" stroke-linejoin="round"/>
</svg>
