<svg viewBox="0 0 35 40" fill="none" xmlns="http://www.w3.org/2000/svg">
<path d="M13.88 16.78C12.74 16.78 11.84 17.78 11.84 19C11.84 20.22 12.76 21.22 13.88 21.22C15.02 21.22 15.92 20.22 15.92 19C15.94 17.78 15.02 16.78 13.88 16.78ZM21.18 16.78C20.04 16.78 19.14 17.78 19.14 19C19.14 20.22 20.06 21.22 21.18 21.22C22.32 21.22 23.22 20.22 23.22 19C23.22 17.78 22.32 16.78 21.18 16.78Z" />
<path d="M30.9 0H4.1C1.84 0 0 1.84 0 4.12V31.16C0 33.44 1.84 35.28 4.1 35.28H26.78L25.72 31.58L28.28 33.96L30.7 36.2L35 40V4.12C35 1.84 33.16 0 30.9 0ZM23.18 26.12C23.18 26.12 22.46 25.26 21.86 24.5C24.48 23.76 25.48 22.12 25.48 22.12C24.66 22.66 23.88 23.04 23.18 23.3C22.18 23.72 21.22 24 20.28 24.16C18.36 24.52 16.6 24.42 15.1 24.14C13.96 23.92 12.98 23.6 12.16 23.28C11.7 23.1 11.2 22.88 10.7 22.6C10.64 22.56 10.58 22.54 10.52 22.5C10.48 22.48 10.46 22.46 10.44 22.44C10.08 22.24 9.88 22.1 9.88 22.1C9.88 22.1 10.84 23.7 13.38 24.46C12.78 25.22 12.04 26.12 12.04 26.12C7.62 25.98 5.94 23.08 5.94 23.08C5.94 16.64 8.82 11.42 8.82 11.42C11.7 9.26 14.44 9.32 14.44 9.32L14.64 9.56C11.04 10.6 9.38 12.18 9.38 12.18C9.38 12.18 9.82 11.94 10.56 11.6C12.7 10.66 14.4 10.4 15.1 10.34C15.22 10.32 15.32 10.3 15.44 10.3C16.66 10.14 18.04 10.1 19.48 10.26C21.38 10.48 23.42 11.04 25.5 12.18C25.5 12.18 23.92 10.68 20.52 9.64L20.8 9.32C20.8 9.32 23.54 9.26 26.42 11.42C26.42 11.42 29.3 16.64 29.3 23.08C29.3 23.08 27.6 25.98 23.18 26.12Z" />
</svg>
