<svg viewBox="0 0 285 573" fill="none" xmlns="http://www.w3.org/2000/svg">
<path d="M572.015 286.207C572.015 444.167 443.966 572.216 286.009 572.216C128.049 572.216 0 444.167 0 286.207C0 128.251 128.049 0.20166 286.009 0.20166C443.966 0.20166 572.015 128.251 572.015 286.207Z" fill="#2A90DE"/>
<path d="M463.471 62.0083C463.471 62.7776 463.529 63.5351 463.529 64.3044C463.51 280.092 306.639 463.86 93.5337 497.758C209.977 604.487 390.895 596.618 497.627 480.182C604.355 363.746 596.494 182.814 480.051 76.0815C474.705 71.177 469.172 66.4833 463.471 62.0083Z" fill="#2379BA"/>
<path d="M177.524 296.071L138.073 246.76H69.0383V335.522L118.349 374.969V453.867H167.66V434.143L216.971 365.109V296.071H177.524Z" fill="#67AB73"/>
<path d="M433.942 236.896H394.495V187.585H395.588L364.907 148.134H256.422V217.173L295.869 276.347H355.044V394.693H394.495L433.942 345.382V305.935L473.393 236.896H433.942Z" fill="#67AB73"/>
<path d="M69.0383 246.76V197.449H108.485L147.937 118.547V79.0996H88.9103C71.7991 95.3713 56.7575 113.693 44.133 133.647C39.8923 140.352 35.9484 147.236 32.3012 154.308L32.2387 154.425C21.0864 175.827 12.7026 198.57 7.29822 222.1L7.16936 222.674C5.37702 230.562 3.90488 238.583 2.77246 246.736L69.0383 246.76Z" fill="#67AB73"/>
<path d="M305.733 49.5125H266.286V108.687H404.355L463.529 187.585H503.589L538.78 152.394C529.182 134.307 517.674 117.305 504.449 101.674L504.003 101.162C500.926 97.5426 497.763 94.0008 494.518 90.5489L493.452 89.436C490.344 86.152 487.158 82.9344 483.885 79.8105L482.694 78.6742C479.36 75.519 475.955 72.442 472.483 69.4547C472.171 69.1775 471.862 68.9003 471.499 68.6347C467.75 65.4288 463.916 62.3244 459.999 59.306H459.948C435.422 40.4688 407.986 25.7435 378.735 15.704L378.211 15.5283C373.467 13.9195 368.672 12.42 363.81 11.0494L363.228 10.8893C358.261 9.49135 353.232 8.22617 348.152 7.09375L305.733 49.5125Z" fill="#67AB73"/>
<path d="M207.111 39.6489H78.8982C67.9997 39.6489 59.1746 48.474 59.1746 59.3725C59.1746 70.271 67.9997 79.1 78.8982 79.1H88.8791L89.3047 78.6939L147.937 79.1H207.111C218.006 79.1 226.835 70.271 226.835 59.3725C226.835 48.474 218.006 39.6489 207.111 39.6489Z" fill="#D0D7DF"/>
<path d="M108.485 296.071H19.7236C8.82504 296.071 0 304.896 0 315.794C0 326.693 8.82504 335.518 19.7236 335.518H108.485C119.384 335.518 128.209 326.693 128.209 315.794C128.209 304.896 119.384 296.071 108.485 296.071Z" fill="#D0D7DF"/>
<path d="M108.485 296.071H19.7236C8.82504 296.071 0 304.896 0 315.794C0 326.693 8.82504 335.518 19.7236 335.518H108.485C119.384 335.518 128.209 326.693 128.209 315.794C128.209 304.896 119.384 296.071 108.485 296.071Z" fill="#D0D7DF"/>
<path d="M207.111 453.867H69.0383C58.1867 453.969 49.4124 462.743 49.3109 473.591C49.3109 484.489 58.1398 493.318 69.0383 493.318H207.111C218.006 493.318 226.835 484.489 226.835 473.591C226.835 462.696 218.006 453.867 207.111 453.867Z" fill="#D0D7DF"/>
<path d="M548.218 400.444C543.841 396.754 538.296 394.712 532.568 394.692H281.077C267.457 394.692 256.422 405.731 256.422 419.348C256.422 432.968 267.457 444.003 281.077 444.003H532.568C546.129 444.066 557.164 433.105 557.223 419.547C557.254 412.151 553.951 405.126 548.218 400.444Z" fill="#D0D7DF"/>
<path d="M147.937 98.8232V79.0996H88.9103C82.3501 85.3396 76.1765 91.9896 70.2294 98.8232H147.937Z" fill="#61A16C"/>
<path d="M207.111 79.0996H147.937V98.8231H207.111C217.939 98.8895 226.764 90.1621 226.835 79.3339C226.854 75.7843 225.905 72.2934 224.101 69.2358C220.603 75.3196 214.132 79.0801 207.111 79.0996Z" fill="#2379BA"/>
<path d="M256.422 207.309H221.903C208.283 207.309 197.247 218.344 197.247 231.965C197.247 245.585 208.283 256.62 221.903 256.62H282.725L256.422 217.173V207.309Z" fill="#2A90DE"/>
<path d="M433.942 236.896H394.495V207.309H256.422V217.173L282.725 256.62H462.12L473.393 236.896H433.942Z" fill="#61A16C"/>
<path d="M488.189 187.585H221.903C208.283 187.585 197.247 198.621 197.247 212.241C197.247 225.861 208.283 236.896 221.903 236.896H488.189C501.805 236.896 512.844 225.861 512.844 212.241C512.844 198.621 501.805 187.585 488.189 187.585Z" fill="#D0D7DF"/>
<path d="M281.077 444.008C271.284 443.996 262.416 438.189 258.503 429.212C253.06 441.688 258.761 456.226 271.233 461.669C274.341 463.02 277.684 463.723 281.077 463.731H510.169C515.218 457.358 520.002 450.782 524.527 444.008H281.077Z" fill="#2379BA"/>
<path d="M226.835 493.318C226.815 489.847 225.866 486.442 224.101 483.455C220.603 489.542 214.132 493.299 207.111 493.318H88.8791C96.1968 500.292 103.882 506.88 111.891 513.042H207.111C218.006 513.042 226.835 504.205 226.835 493.318Z" fill="#2379BA"/>
<path d="M128.209 335.522C128.19 332.047 127.245 328.645 125.48 325.658C121.977 331.742 115.506 335.502 108.485 335.522H69.0383L93.6938 355.246H108.485C119.384 355.246 128.209 346.409 128.209 335.522Z" fill="#61A16C"/>
<path d="M69.0384 355.246H93.6938L69.0384 335.522H19.7236C12.7924 335.499 6.3923 331.832 2.8701 325.854L2.81152 325.975C3.97518 334.315 5.5137 342.543 7.37633 350.63C10.8165 353.566 15.1978 355.203 19.7236 355.246H69.0384Z" fill="#2379BA"/>
</svg>
