<svg viewBox="0 0 131 67" fill="none" xmlns="http://www.w3.org/2000/svg">
<path fill-rule="evenodd" clip-rule="evenodd" d="M48.5912 7.94708C52.4038 8.1722 55.8651 10.2483 57.8587 13.5059C59.8524 16.7635 60.1262 20.7904 58.5919 24.2879C58.4911 24.5147 58.3844 24.7396 58.27 24.9607C61.9164 27.1183 64.1078 31.0821 63.9959 35.3175C63.8839 39.553 61.4863 43.3955 57.731 45.3576C57.6831 50.7266 53.9797 55.3709 48.756 56.6127C48.5479 60.5239 46.1851 63.996 42.623 65.6247C39.061 67.2535 34.8892 66.7694 31.7948 64.3682L31.1026 63.8311V3.86188L31.5466 3.35583C34.0171 0.533544 37.8783 -0.636908 41.5 0.338658C45.1217 1.31422 47.8726 4.26576 48.5912 7.94708Z" fill="#C9C9C9"/>
<path fill-rule="evenodd" clip-rule="evenodd" d="M32.8923 11.5049V62.9645C35.6644 65.1139 39.4533 65.3968 42.514 63.683C45.5746 61.9692 47.3135 58.591 46.9297 55.1043C52.0304 54.6514 55.9415 50.3794 55.9435 45.2587C55.9435 44.9756 55.926 44.677 55.897 44.3436L55.8853 44.2311C59.7347 42.7431 62.2552 39.0209 62.2077 34.8941C62.1601 30.7674 59.5547 27.1042 55.6721 25.7052C58.0067 22.7295 58.4393 18.6827 56.7866 15.2807C55.1338 11.8787 51.6852 9.71747 47.903 9.7134C47.6025 9.7134 47.2961 9.72891 46.982 9.75799C46.9538 6.42109 44.8669 3.44862 41.738 2.28867C38.609 1.12872 35.0888 2.02254 32.8923 4.53468V11.5146V11.5049Z" fill="#ED297A"/>
<path fill-rule="evenodd" clip-rule="evenodd" d="M60.3641 35.0079C60.3653 31.4219 57.991 28.2688 54.5443 27.279C51.0976 26.2892 47.4121 27.7021 45.5104 30.7424L43.9593 29.7729C46.0176 26.4846 49.8086 24.7036 53.6537 25.2185C55.1252 23.7179 55.9459 21.6976 55.9377 19.5958C55.9377 15.1573 52.3396 11.5592 47.9011 11.5592C47.6116 11.5587 47.3223 11.5735 47.0344 11.6038L46.7746 11.6348C45.9601 15.1443 42.9126 17.685 39.3138 17.8547L39.2343 16.0147C41.98 15.8968 44.321 13.9867 44.9874 11.3205C45.6538 8.65429 44.4868 5.86738 42.1194 4.47153C39.7521 3.07568 36.7485 3.40354 34.7381 5.27726V11.5049H32.8923V4.53468C35.0888 2.02254 38.609 1.12872 41.738 2.28867C44.8669 3.44862 46.9538 6.42109 46.982 9.75799C47.2961 9.72891 47.6025 9.7134 47.903 9.7134C51.6852 9.71747 55.1338 11.8787 56.7866 15.2807C58.4393 18.6827 58.0067 22.7295 55.6721 25.7052C59.5547 27.1042 62.1601 30.7674 62.2077 34.8941C62.2552 39.0209 59.7347 42.7431 55.8853 44.2311L55.897 44.3435C55.926 44.6693 55.9435 44.9756 55.9435 45.2587C55.9415 50.3794 52.0304 54.6514 46.9297 55.1043C47.3154 58.5917 45.5769 61.9714 42.5155 63.6857C39.454 65.3999 35.664 65.1159 32.8923 62.9645V56.7019H34.7381V61.997C36.8703 63.2522 39.5115 63.2693 41.6599 62.0419C43.8082 60.8145 45.1347 58.5305 45.1362 56.0563C45.137 55.7815 45.1208 55.5069 45.0878 55.2342L45.0703 55.0926C42.554 54.8378 40.2309 53.6284 38.579 51.7132L39.9711 50.5092C42.1664 53.0477 45.7077 53.9552 48.8533 52.7854C51.9989 51.6157 54.0867 48.6148 54.0899 45.2587C54.0899 45.0648 54.0899 44.8961 54.0764 44.7352C48.7361 45.6921 43.6221 42.1674 42.6157 36.8362L44.4266 36.4969C45.1963 40.5731 48.9412 43.3941 53.0714 43.0092C57.2017 42.6244 60.3608 39.1599 60.3641 35.0118" fill="white"/>
<path fill-rule="evenodd" clip-rule="evenodd" d="M15.4036 8.00424C11.5912 8.22871 8.12975 10.3044 6.136 13.5617C4.14225 16.8191 3.86845 20.8459 5.40294 24.3431C5.50376 24.5719 5.6104 24.7968 5.72673 25.0178C2.08238 27.1768 -0.107431 31.1396 0.00406342 35.374C0.115558 39.6084 2.51088 43.4505 6.2638 45.4147C6.31043 50.7855 10.0138 55.4321 15.2388 56.6757C15.4469 60.5869 17.8098 64.059 21.3718 65.6877C24.9338 67.3165 29.1057 66.8323 32.2001 64.4312L32.8922 63.8941V3.92098L32.4482 3.41493C29.978 0.592682 26.1171 -0.577995 22.4955 0.397134C18.8739 1.37226 16.1228 4.32324 15.4036 8.00424Z" fill="#C9C9C9"/>
<path fill-rule="evenodd" clip-rule="evenodd" d="M31.1026 11.5611V63.0226C28.3306 65.1774 24.538 65.4634 21.4742 63.7488C18.4104 62.0342 16.6707 58.652 17.0575 55.1624C11.9575 54.7086 8.04753 50.4369 8.04559 45.3168C8.04559 45.0338 8.0611 44.7352 8.09019 44.4017L8.10182 44.2892C4.2523 42.7984 1.73401 39.073 1.78541 34.9452C1.83681 30.8174 4.4471 27.1559 8.33254 25.7614C6.00062 22.7876 5.56759 18.7447 7.21678 15.3445C8.86598 11.9443 12.309 9.78138 16.088 9.77155C16.3885 9.77155 16.6968 9.78707 17.009 9.81615C17.0333 6.47628 19.1207 3.49956 22.2525 2.33887C25.3843 1.17818 28.9076 2.07549 31.1026 4.59283V11.5611Z" fill="#1C75DB"/>
<path fill-rule="evenodd" clip-rule="evenodd" d="M3.63086 35.066C3.6297 31.48 6.00395 28.3269 9.45067 27.3371C12.8974 26.3473 16.5828 27.7603 18.4845 30.8005L20.0356 29.8311C17.9758 26.5392 14.1799 24.7577 10.3316 25.2767C8.86004 23.776 8.03939 21.7557 8.04761 19.654C8.04812 17.5222 8.89559 15.4779 10.4035 13.9711C11.9115 12.4642 13.9563 11.6182 16.0881 11.6193C16.3782 11.6182 16.6681 11.6324 16.9567 11.6619L17.2146 11.6949C18.0304 15.2056 21.0808 17.7459 24.6812 17.9128L24.7607 16.0729C22.015 15.955 19.674 14.0448 19.0076 11.3786C18.3412 8.71243 19.5082 5.92551 21.8755 4.52966C24.2429 3.13382 27.2464 3.46168 29.2569 5.3354V11.5611H31.1027V4.59281C28.9061 2.08067 25.3859 1.18686 22.257 2.34681C19.1281 3.50676 17.0412 6.47923 17.0129 9.81613C16.7008 9.78704 16.3925 9.77153 16.092 9.77153C12.3087 9.77227 8.85819 11.9337 7.20651 15.3373C5.55482 18.741 5.99213 22.789 8.33262 25.7614C4.44847 27.1592 1.84137 30.8229 1.79343 34.9506C1.74548 39.0783 4.26678 42.8015 8.11741 44.2892L8.10577 44.4017C8.07669 44.7274 8.06118 45.0338 8.06118 45.3168C8.06239 50.4314 11.9638 54.7011 17.0575 55.1624C16.6718 58.6498 18.4103 62.0296 21.4718 63.7438C24.5332 65.458 28.3232 65.174 31.0949 63.0226V56.76H29.2491V62.0551C27.1169 63.3103 24.4757 63.3275 22.3274 62.1001C20.179 60.8726 18.8525 58.5887 18.851 56.1144C18.8511 55.8397 18.8673 55.5652 18.8995 55.2923L18.9169 55.1508C21.4369 54.8963 23.7631 53.6846 25.416 51.7655L24.0239 50.5595C21.8307 53.1046 18.2858 54.0169 15.1366 52.8467C11.9873 51.6764 9.89826 48.6707 9.89923 45.311C9.89923 45.1171 9.89923 44.9484 9.9128 44.7875C15.2564 45.7478 20.3748 42.2201 21.3793 36.8847L19.5781 36.5512C18.8129 40.6322 15.0656 43.459 10.9314 43.0738C6.79718 42.6886 3.63661 39.2182 3.63862 35.066" fill="white"/>
<path d="M31.1045 9.90921H29.2568V58.2685H31.1045V9.90921Z" fill="white"/>
<path d="M34.74 8.30963H32.8923V58.2685H34.74V8.30963Z" fill="white"/>
<path d="M74.3611 43V24.688H77.6091V40.256H85.2251V43H74.3611ZM93.6603 43.336C92.7083 43.336 91.8217 43.1773 91.0003 42.86C90.179 42.524 89.4603 42.048 88.8443 41.432C88.2283 40.816 87.743 40.0693 87.3883 39.192C87.0523 38.296 86.8843 37.2787 86.8843 36.14C86.8843 35.02 87.0617 34.012 87.4163 33.116C87.771 32.22 88.2377 31.464 88.8163 30.848C89.4137 30.232 90.095 29.756 90.8603 29.42C91.6257 29.084 92.4097 28.916 93.2123 28.916C94.1457 28.916 94.967 29.0747 95.6763 29.392C96.3857 29.7093 96.9737 30.1573 97.4403 30.736C97.9257 31.3147 98.2897 32.0053 98.5323 32.808C98.775 33.6107 98.8963 34.488 98.8963 35.44C98.8963 35.7573 98.8777 36.056 98.8403 36.336C98.8217 36.616 98.7937 36.84 98.7563 37.008H90.0203C90.1697 38.24 90.599 39.192 91.3083 39.864C92.0363 40.5173 92.9603 40.844 94.0803 40.844C94.6777 40.844 95.2283 40.76 95.7323 40.592C96.255 40.4053 96.7683 40.1533 97.2723 39.836L98.3643 41.852C97.711 42.2813 96.983 42.636 96.1803 42.916C95.3777 43.196 94.5377 43.336 93.6603 43.336ZM89.9923 34.824H96.0963C96.0963 33.76 95.863 32.9293 95.3963 32.332C94.9483 31.716 94.2483 31.408 93.2963 31.408C92.475 31.408 91.7563 31.6973 91.1403 32.276C90.5243 32.8547 90.1417 33.704 89.9923 34.824ZM107.6 43.336C106.741 43.336 105.92 43.1773 105.136 42.86C104.352 42.5427 103.652 42.076 103.036 41.46C102.438 40.844 101.962 40.088 101.608 39.192C101.253 38.296 101.076 37.2787 101.076 36.14C101.076 35.0013 101.253 33.984 101.608 33.088C101.962 32.192 102.438 31.436 103.036 30.82C103.652 30.204 104.352 29.7373 105.136 29.42C105.92 29.084 106.741 28.916 107.6 28.916C108.458 28.916 109.28 29.084 110.064 29.42C110.866 29.7373 111.566 30.204 112.164 30.82C112.761 31.436 113.237 32.192 113.592 33.088C113.965 33.984 114.152 35.0013 114.152 36.14C114.152 37.2787 113.965 38.296 113.592 39.192C113.237 40.088 112.761 40.844 112.164 41.46C111.566 42.076 110.866 42.5427 110.064 42.86C109.28 43.1773 108.458 43.336 107.6 43.336ZM107.6 40.704C108.608 40.704 109.401 40.2933 109.98 39.472C110.558 38.632 110.848 37.5213 110.848 36.14C110.848 34.74 110.558 33.6293 109.98 32.808C109.401 31.968 108.608 31.548 107.6 31.548C106.592 31.548 105.798 31.968 105.22 32.808C104.66 33.6293 104.38 34.74 104.38 36.14C104.38 37.5213 104.66 38.632 105.22 39.472C105.798 40.2933 106.592 40.704 107.6 40.704ZM117.339 43V29.252H119.999L120.223 31.1H120.335C120.951 30.5027 121.614 29.9893 122.323 29.56C123.051 29.1307 123.891 28.916 124.843 28.916C126.318 28.916 127.391 29.392 128.063 30.344C128.735 31.2773 129.071 32.6213 129.071 34.376V43H125.851V34.796C125.851 33.6573 125.683 32.8547 125.347 32.388C125.011 31.9213 124.46 31.688 123.695 31.688C123.098 31.688 122.566 31.8373 122.099 32.136C121.651 32.416 121.138 32.836 120.559 33.396V43H117.339Z" fill="white"/>
</svg>
