<svg viewBox="0 0 128 167" fill="none" xmlns="http://www.w3.org/2000/svg">
<path fill-rule="evenodd" clip-rule="evenodd" d="M93.8345 29.3231C101.357 28.0146 108.186 30.5196 112.119 36.0303C116.053 41.541 116.593 49.3602 113.566 56.966C113.367 57.4599 113.156 57.9527 112.931 58.4413C120.125 61.0222 124.449 67.8352 124.228 76.2432C124.007 84.6512 119.276 93.3345 111.867 98.932C111.773 109.547 104.466 120.413 94.1597 125.264C93.7492 133.076 89.0873 141.013 82.0594 145.864C75.0316 150.715 66.8006 151.678 60.6954 148.362L59.3297 147.621V29.3024L60.2057 28.0999C65.0799 21.3959 72.6981 17.3116 79.8437 17.5715C86.9893 17.8314 92.4167 22.3902 93.8345 29.3231Z" fill="#A31B57"/>
<path fill-rule="evenodd" clip-rule="evenodd" d="M69.2035 44.5845V146.114C74.6729 149.08 82.1484 147.897 88.187 143.108C94.2257 138.32 97.6564 130.856 96.8992 124.153C106.963 120.914 114.679 110.688 114.683 100.584C114.683 100.025 114.649 99.4442 114.591 98.7996L114.569 98.5831C122.163 93.8777 127.136 85.3752 127.042 77.255C126.949 69.1349 121.808 63.1051 114.148 62.1297C118.754 55.1855 119.608 47.0024 116.347 41.05C113.086 35.0976 106.282 32.4189 98.8195 34.1495C98.2266 34.2877 97.6222 34.4591 97.0025 34.6608C96.9468 28.0901 92.8293 23.1848 86.656 22.3346C80.4826 21.4844 73.5373 24.8661 69.2035 30.8323V44.6036V44.5845Z" fill="#EC297A"/>
<path fill-rule="evenodd" clip-rule="evenodd" d="M123.405 78.3269C123.407 71.2512 118.723 66.1217 111.923 65.7533C105.122 65.3849 97.851 69.8667 94.099 76.7393L91.0387 75.5396C95.0996 68.1056 102.579 62.8489 110.166 62.0974C113.069 58.4601 114.688 54.0969 114.672 49.9539C114.672 41.1968 107.573 35.7518 98.8157 37.7921C98.2445 37.9241 97.6738 38.0865 97.1057 38.2785L96.5931 38.4592C94.9862 45.7578 88.9734 52.1715 81.8731 54.1606L81.7163 50.5669C87.1335 49.0721 91.7523 44.2273 93.0671 38.6606C94.3818 33.0938 92.0794 28.1318 87.4086 26.466C82.7378 24.8003 76.8119 26.8279 72.8453 31.4489V43.736L69.2035 44.5845V30.8323C73.5373 24.8661 80.4826 21.4844 86.656 22.3346C92.8293 23.1848 96.9468 28.0901 97.0025 34.6608C97.6222 34.4591 98.2266 34.2877 98.8195 34.1495C106.282 32.4189 113.086 35.0976 116.347 41.05C119.608 47.0024 118.754 55.1855 114.148 62.1297C121.808 63.1051 126.949 69.1349 127.042 77.255C127.136 85.3752 122.163 93.8777 114.569 98.5831L114.591 98.7996C114.649 99.4289 114.683 100.025 114.683 100.584C114.679 110.688 106.963 120.914 96.8992 124.153C97.6602 130.856 94.2301 138.323 88.1899 143.113C82.1498 147.902 74.6721 149.084 69.2035 146.114V133.758L72.8453 132.909V143.356C77.0521 144.853 82.2632 143.672 86.5019 140.263C90.7406 136.854 93.3577 131.738 93.3607 126.855C93.3622 126.313 93.3303 125.779 93.2651 125.256L93.2306 124.984C88.2659 125.638 83.6826 124.32 80.4233 121.301L83.1699 118.285C87.5012 122.285 94.4881 122.447 100.694 118.693C106.901 114.939 111.02 108.059 111.026 101.436C111.026 101.053 111.026 100.721 110.999 100.409C100.463 104.752 90.3733 100.149 88.3877 90.0931L91.9606 88.5912C93.4792 96.2795 100.868 100.124 109.017 97.4659C117.166 94.8079 123.399 86.5204 123.405 78.3346" fill="white"/>
<path fill-rule="evenodd" clip-rule="evenodd" d="M31.3375 39.8693C23.9526 42.0248 17.2477 47.6077 13.3857 54.8171C9.52371 62.0265 8.99336 69.9501 11.9657 76.0319C12.161 76.4295 12.3676 76.8171 12.5929 77.1927C5.53366 83.0195 1.29191 91.684 1.50788 99.8359C1.72385 107.988 6.36369 114.349 13.6332 116.46C13.7236 126.842 20.8972 134.172 31.0182 134.222C31.4213 141.705 35.9982 147.364 42.8981 148.911C49.7979 150.458 57.8789 147.638 63.8729 141.59L65.2136 140.237V24.0669L64.3536 23.2871C59.5687 18.9351 52.09 18.41 45.0748 21.9333C38.0596 25.4567 32.7305 32.4145 31.3375 39.8693Z" fill="#0E488B"/>
<path fill-rule="evenodd" clip-rule="evenodd" d="M30.7102 38.708C23.3253 40.8634 16.6204 46.4463 12.7584 53.6557C8.89644 60.8652 8.36609 68.7887 11.3385 74.8705C11.5338 75.2682 11.7403 75.6557 11.9657 76.0313C4.9064 81.8581 0.664644 90.5226 0.880613 98.6745C1.09658 106.826 5.73642 113.188 13.006 115.299C13.0963 125.681 20.2699 133.01 30.391 133.061C30.794 140.543 35.371 146.202 42.2708 147.75C49.1706 149.297 57.2516 146.476 63.2456 140.429L64.5864 139.076V22.9056L63.7263 22.1257C58.9414 17.7737 51.4627 17.2486 44.4475 20.772C37.4323 24.2953 32.1033 31.2531 30.7102 38.708Z" fill="#0E488B"/>
<path fill-rule="evenodd" clip-rule="evenodd" d="M34.2413 43.2235C27.3879 45.2238 21.1657 50.4048 17.5817 57.0953C13.9978 63.7858 13.5056 71.139 16.264 76.7829C16.4452 77.152 16.6369 77.5116 16.846 77.8602C10.2949 83.2675 6.35852 91.3083 6.55894 98.8734C6.75936 106.438 11.0652 112.342 17.8115 114.301C17.8953 123.936 24.5525 130.737 33.945 130.785C34.319 137.728 38.5665 142.98 44.9696 144.416C51.3728 145.852 58.8721 143.234 64.4346 137.622L65.6788 136.367V28.5587L64.8807 27.835C60.4403 23.7963 53.4999 23.3089 46.9897 26.5787C40.4795 29.8484 35.534 36.3053 34.2413 43.2235Z" fill="#0E488B"/>
<path fill-rule="evenodd" clip-rule="evenodd" d="M65.6727 45.518V147.051C60.2036 152.576 52.7208 154.884 46.676 152.91C40.6311 150.935 37.1986 145.062 37.9617 137.999C27.8996 139.448 20.1852 132.818 20.1814 122.717C20.1814 122.158 20.212 121.562 20.2694 120.891L20.2923 120.664C12.6973 119.492 7.7287 113.299 7.83012 105.132C7.93154 96.9638 13.0816 88.5397 20.7475 84.0023C16.1467 79.2069 15.2923 71.4295 18.5462 63.9627C21.8 56.496 28.593 50.6459 36.049 48.8893C36.6419 48.7511 37.2502 48.64 37.8661 48.5539C37.914 41.9532 42.0325 35.1206 48.2115 31.3909C54.3905 27.6612 61.3418 27.812 65.6727 31.7696V45.518Z" fill="#1C75DB"/>
<path fill-rule="evenodd" clip-rule="evenodd" d="M11.471 104.522C11.4688 97.4471 16.1531 90.1347 22.9535 86.5974C29.7538 83.0601 37.0252 84.1536 40.7772 89.2778L43.8375 86.6521C39.7735 81.1041 32.2843 79.3342 24.6915 82.1272C21.7882 79.8429 20.169 76.2341 20.1852 72.0836C20.1862 67.8774 21.8583 63.4545 24.8335 59.7883C27.8086 56.1221 31.8431 53.513 36.049 52.5351C36.6214 52.3995 37.1934 52.2943 37.7628 52.2199L38.2716 52.1664C39.8811 58.718 45.8995 62.3277 53.0031 61.002L53.1599 57.3352C47.7427 58.3648 43.1239 55.6723 41.8091 50.7182C40.4943 45.7642 42.7968 39.7291 47.4676 35.8869C52.1384 32.0446 58.0643 31.3108 62.0309 34.0834V46.3667L65.6727 45.5182V31.7698C61.3389 27.8231 54.3936 27.6779 48.2202 31.4048C42.0469 35.1317 37.9294 41.9557 37.8737 48.5523C37.2578 48.6384 36.6496 48.7496 36.0567 48.8877C28.5924 50.6283 21.7845 56.4789 18.5258 63.9535C15.267 71.4282 16.1298 79.2139 20.7476 84.0025C13.0842 88.5459 7.94041 96.9727 7.84581 105.139C7.75121 113.305 12.7257 119.492 20.3229 120.657L20.3 120.884C20.2426 121.54 20.212 122.151 20.212 122.71C20.2144 132.8 27.9118 139.431 37.9617 138C37.2007 145.058 40.6308 150.927 46.6709 152.901C52.7111 154.876 60.1888 152.573 65.6574 147.055V134.699L62.0156 135.547V145.994C57.8087 149.451 52.5977 150.699 48.359 149.265C44.1203 147.831 41.5031 143.934 41.5002 139.053C41.5004 138.511 41.5323 137.962 41.5958 137.409L41.6302 137.122C46.6021 135.461 51.1918 132.001 54.4529 127.455L51.7063 125.716C47.3792 131.745 40.3852 135.175 34.1717 134.314C27.9582 133.453 23.8366 128.483 23.8385 121.853C23.8385 121.471 23.8385 121.138 23.8652 120.814C34.408 120.253 44.5066 110.94 46.4885 99.9511L42.9347 100.121C41.4251 108.525 34.0317 115.825 25.8749 116.965C17.7182 118.105 11.4824 112.711 11.4863 104.518" fill="white"/>
<path d="M65.6765 42.2579L62.0309 43.1073V138.52L65.6765 137.67V42.2579Z" fill="white"/>
<path d="M72.8491 37.4308L69.2035 38.2802V136.848L72.8491 135.999V37.4308Z" fill="white"/>
</svg>
