<svg viewBox="0 0 115 119" fill="none" xmlns="http://www.w3.org/2000/svg">
<path fill-rule="evenodd" clip-rule="evenodd" d="M108.168 62.4606C108.17 56.0625 103.916 50.4368 97.7396 48.6708C91.5633 46.9049 84.9592 49.4258 81.5515 54.8502L78.772 53.1205C82.4603 47.2534 89.2535 44.0758 96.1436 44.9946C98.7806 42.3171 100.251 38.7126 100.236 34.9626C100.236 27.0435 93.7888 20.6238 85.8353 20.6238C85.3166 20.6228 84.7982 20.6494 84.2823 20.7034L83.8167 20.7587C82.3573 27.0203 76.8963 31.5534 70.4476 31.8562L70.3051 28.5733C75.2252 28.363 79.4201 24.9549 80.6142 20.1979C81.8084 15.4409 79.7172 10.4685 75.4751 7.97809C71.2329 5.48763 65.8508 6.0726 62.2482 9.41567V20.5269H58.9406V8.09076C62.8767 3.60863 69.1847 2.0139 74.7915 4.08346C80.3983 6.15303 84.1379 11.4565 84.1885 17.4101C84.7513 17.3582 85.3003 17.3306 85.8388 17.3306C92.6163 17.3378 98.7959 21.1938 101.758 27.2636C104.719 33.3335 103.944 40.5536 99.7604 45.8629C106.718 48.3589 111.387 54.8948 111.472 62.2576C111.557 69.6205 107.04 76.2616 100.143 78.9165L100.163 79.1172C100.216 79.6983 100.247 80.2449 100.247 80.7499C100.243 89.8863 93.2348 97.5083 84.0947 98.3163C84.7859 104.539 81.6706 110.569 76.1847 113.627C70.6988 116.686 63.9073 116.179 58.9406 112.34V101.167H62.2482V110.614C66.069 112.854 70.8018 112.884 74.6515 110.694C78.5013 108.504 80.8783 104.429 80.8809 100.015C80.8824 99.5246 80.8534 99.0347 80.7941 98.5481L80.7628 98.2955C76.2537 97.8408 72.091 95.6831 69.1308 92.266L71.6254 90.1177C75.5591 94.6469 81.9049 96.2661 87.5416 94.179C93.1783 92.0919 96.9196 86.7378 96.9254 80.7499C96.9254 80.404 96.9254 80.1031 96.901 79.8159C87.3316 81.5232 78.1677 75.2345 76.3643 65.7227L79.6093 65.1174C80.9886 72.3899 87.6991 77.4232 95.1003 76.7365C102.501 76.0498 108.162 69.8686 108.168 62.4675" fill="white"/>
<path fill-rule="evenodd" clip-rule="evenodd" d="M6.50616 62.5641C6.50408 56.166 10.7586 50.5403 16.9349 48.7744C23.1111 47.0084 29.7152 49.5293 33.1229 54.9537L35.9024 53.224C32.2114 47.3507 25.4094 44.1721 18.5134 45.0981C15.8765 42.4206 14.4059 38.8161 14.4207 35.0661C14.4216 31.2626 15.9402 27.6154 18.6423 24.9269C21.3444 22.2384 25.0087 20.7289 28.8287 20.7308C29.3485 20.7288 29.868 20.7542 30.3852 20.8069L30.8472 20.8657C32.3091 27.1295 37.7752 31.6618 44.2269 31.9597L44.3693 28.6768C39.4492 28.4665 35.2543 25.0585 34.0602 20.3014C32.866 15.5444 34.9572 10.5721 39.1994 8.0816C43.4415 5.59115 48.8237 6.17612 52.4263 9.51918V20.627H55.7338V8.19427C51.7977 3.71215 45.4898 2.11742 39.8829 4.18698C34.2761 6.25654 30.5365 11.56 30.4859 17.5136C29.9266 17.4617 29.3741 17.4341 28.8356 17.4341C22.0563 17.4354 15.8732 21.2917 12.9135 27.3645C9.95377 33.4372 10.7374 40.6597 14.9314 45.9629C7.97127 48.4569 3.29952 54.9935 3.21361 62.3582C3.12769 69.7228 7.64568 76.3657 14.5457 79.02L14.5249 79.2207C14.4728 79.8018 14.445 80.3484 14.445 80.8535C14.4472 89.9789 21.4381 97.5967 30.5658 98.4198C29.8746 104.642 32.9899 110.672 38.4758 113.731C43.9617 116.789 50.7532 116.282 55.7199 112.444V101.27H52.4124V110.718C48.5915 112.957 43.8587 112.988 40.009 110.798C36.1593 108.608 33.7823 104.533 33.7796 100.118C33.7798 99.6281 33.8088 99.1384 33.8664 98.6516L33.8977 98.399C38.4133 97.9451 42.5818 95.7831 45.5436 92.3591L43.0491 90.2074C39.1191 94.7483 32.7669 96.376 27.1236 94.2881C21.4803 92.2001 17.7369 86.8374 17.7386 80.8431C17.7386 80.4971 17.7386 80.1962 17.763 79.9091C27.3383 81.6224 36.5101 75.3284 38.3101 65.8089L35.0824 65.214C33.7114 72.4953 26.9965 77.5388 19.5882 76.8515C12.18 76.1642 6.51646 69.9723 6.52006 62.5641" fill="white"/>
<path d="M55.7373 17.6797H52.4263V103.962H55.7373V17.6797Z" fill="white"/>
<path d="M62.2516 14.8262H58.9406V103.962H62.2516V14.8262Z" fill="white"/>
</svg>
