<svg viewBox="0 0 363 524" fill="none" xmlns="http://www.w3.org/2000/svg">
<path d="M370.162 370.121C322.705 418.587 267.865 459.224 207.69 490.528C333.898 520.53 460.532 442.538 490.534 316.33C499.025 280.599 499.025 243.376 490.527 207.645C459.24 267.824 418.614 322.66 370.162 370.121Z" fill="#E38800"/>
<path d="M132.839 338.609C185.782 308.694 228.602 263.67 255.805 209.281C270.488 179.92 289.811 153.107 313.021 129.89L379.477 63.4522L382.593 60.5322C379.548 58.7251 376.549 56.8285 373.422 55.1108C369.314 52.8994 365.12 50.8274 360.876 48.87C360.071 48.4871 359.258 48.1364 358.453 47.7679C354.495 45.9608 350.505 44.3075 346.437 42.7437L345.463 42.4288C320.98 33.1392 295.104 28.0256 268.935 27.3242L268.165 28.226C230.295 67.4994 196.679 110.655 167.883 156.993C131.104 216.141 86.5128 270.057 35.3232 317.278L34.0779 318.381C36.318 327.549 39.1092 336.577 42.4335 345.412C42.5588 345.738 42.6948 346.063 42.8129 346.385C44.3766 350.443 46.0657 354.444 47.837 358.395C48.1984 359.196 48.5598 360.012 48.9392 360.814C50.9001 365.061 52.9685 369.262 55.1835 373.363C57.141 376.978 59.2916 380.492 61.4351 384.006C74.9151 373.696 88.9247 364.113 103.407 355.267L132.839 338.609Z" fill="#F09E26"/>
<path d="M167.876 156.944C196.668 110.607 230.284 67.4511 268.155 28.1777L268.924 27.2759C266.631 27.2222 264.344 27.0684 262.032 27.0684C132.335 27.0219 27.1646 132.117 27.1109 261.814C27.1038 280.172 29.2508 298.458 33.4984 316.31C33.6702 317.005 33.8956 317.674 34.0674 318.379L35.3163 317.277C86.5131 270.034 131.097 216.1 167.876 156.944Z" fill="#F5AE45"/>
<path d="M418.052 167.814L373.704 197.973C319.179 235.039 274.27 284.564 242.704 342.449C223.724 377.268 199.856 409.177 171.823 437.228L142.426 464.023C145.135 465.641 147.847 467.337 150.627 468.847C205.646 449.674 274.624 403.737 339.183 339.179C403.742 274.62 449.682 205.606 468.851 150.587C466.035 145.363 463.026 140.267 459.819 135.29C446.601 147.009 432.652 157.877 418.052 167.814Z" fill="#F09E26"/>
<path d="M242.716 342.445C274.281 284.563 319.191 235.038 373.712 197.969L418.063 167.813C432.663 157.865 446.601 147.008 459.82 135.289C440.171 104.743 413.737 79.15 382.576 60.4956L379.477 63.4478L313.039 129.885C289.83 153.106 270.506 179.919 255.824 209.28C228.613 263.665 185.79 308.693 132.84 338.605L103.364 355.266C88.9071 364.109 74.9225 373.703 61.4711 384.001C81.5355 416.88 109.344 444.334 142.462 463.983L171.823 437.223C199.857 409.183 223.725 377.263 242.716 342.445Z" fill="#F5AE45"/>
<path d="M500.582 23.4548C464.851 -12.3154 394.953 -5.74533 316.346 33.4637C326.236 35.804 335.959 38.7848 345.463 42.3883L346.419 42.7712C350.477 44.3314 354.477 46.0025 358.435 47.7918C359.24 48.1639 360.053 48.5146 360.858 48.8939C365.102 50.8621 369.296 52.9233 373.404 55.1383C413.726 41.0893 446.583 41.3864 464.579 59.411C482.575 77.4356 482.901 110.264 468.852 150.586C449.682 205.605 403.742 274.608 339.183 339.138C274.624 403.672 205.646 449.637 150.628 468.846C110.309 482.902 77.4486 482.594 59.4526 464.573C41.4566 446.548 41.1238 413.684 55.1442 373.362C52.9327 369.261 50.8715 365.06 48.8998 360.813C48.5205 360.011 48.1591 359.195 47.7976 358.394C45.9905 354.443 44.3194 350.442 42.7771 346.384C42.659 346.062 42.523 345.737 42.3978 345.411C38.7907 335.914 35.8099 326.195 33.4696 316.311C-5.73946 394.908 -12.3059 464.806 23.4177 500.536C59.1377 536.267 129.082 529.69 207.69 490.528C267.868 459.223 322.704 418.587 370.162 370.12C418.614 322.663 459.24 267.823 490.526 207.644C529.746 129.037 536.302 59.139 500.582 23.4548Z" fill="#FABC5F"/>
<path d="M175.573 161.678C204.14 115.763 237.455 73.0045 274.993 34.0854L280.415 27.8517C274.335 27.3829 268.219 27.0645 262.032 27.0645C260.279 27.0645 258.55 27.1575 256.818 27.2004C220.501 65.5077 188.13 107.372 160.204 152.163C124.463 209.64 81.2635 262.122 31.72 308.23C33.0655 314.979 34.7366 321.603 36.6511 328.105L41.4569 323.879C93.2442 276.088 138.361 221.531 175.573 161.678Z" fill="#E38800"/>
<path d="M137.355 346.455C191.887 315.702 235.956 269.329 263.9 213.308C278.139 184.806 296.886 158.787 319.427 136.264L385.664 70.0164L390.58 65.4002C385.356 61.9757 380.01 58.7229 374.506 55.7134L373.089 57.0517L306.641 123.489C282.737 147.386 262.844 174.987 247.74 205.224C221.413 258.028 179.882 301.735 128.484 330.728L98.9981 347.389C84.4445 356.242 70.3669 365.854 56.8154 376.181C59.7712 381.474 62.9238 386.641 66.2553 391.683C79.6279 381.456 93.5123 371.926 107.869 363.145L137.355 346.455Z" fill="#E38800"/>
<path d="M250.656 346.756C281.599 290.185 325.514 241.75 378.8 205.433L423.148 175.231C437.605 165.347 451.436 154.576 464.572 142.996C461.491 137.764 458.22 132.669 454.76 127.709C441.559 139.464 427.603 150.35 412.985 160.287L368.638 190.482C312.986 228.417 267.117 279.009 234.793 338.1C216.3 372.034 193.054 403.149 165.754 430.495L134.375 459.087C139.642 462.512 145.039 465.765 150.582 468.763L178.229 443.56C206.867 414.918 231.258 382.315 250.656 346.756Z" fill="#E38800"/>
<path d="M316.346 33.4637C326.236 35.804 335.959 38.7848 345.463 42.3883L346.419 42.7712C350.477 44.3314 354.478 46.0025 358.435 47.7918C359.24 48.1639 360.053 48.5146 360.858 48.8939C365.102 50.8621 369.296 52.9233 373.404 55.1383C408.251 42.9967 437.458 41.6297 456.395 53.1058C473.93 46.2674 491.8 40.3307 509.95 35.3352C507.259 31.0518 504.114 27.069 500.582 23.4548C464.851 -12.3154 394.953 -5.74533 316.346 33.4637Z" fill="#F5AE45"/>
</svg>
